<?xml version="1.0" encoding="utf-8"?>
<svg version="1.1" xmlns="http://www.w3.org/2000/svg" xmlns:xlink="http://www.w3.org/1999/xlink" height="70.36712360351885" width="190.05694516421863">
  <defs>
    <ellipse id="ellipse-1" opacity="1" rx="1.393122323395355" ry="1.3911287590665573" cx="37.163608344830216" cy="8.039036711644851"/>
    <ellipse id="ellipse-2" opacity="1" rx="1.3931223233953531" ry="1.3911287590665555" cx="42.6316134641578" cy="8.978048624015424"/>
    <ellipse id="ellipse-3" opacity="1" rx="1.3931223233953567" ry="1.3911287590665573" cx="47.61202577029668" cy="10.821294229778712"/>
    <ellipse id="ellipse-4" opacity="1" rx="1.3931223233953531" ry="1.3911287590665573" cx="52.48795390217902" cy="13.603551747911208"/>
    <ellipse id="ellipse-5" opacity="1" rx="1.3931223233953531" ry="1.3911287590665573" cx="56.52800864002587" cy="17.08137364557754"/>
    <path id="path-6" opacity="1" fill-rule="evenodd" d="M30.0130562401873,7.541545647214548 C6.506518219090257,12.100269234672377 -1.895603495523103,43.91037006085899 21.142701625784404,58.81523641757688 C45.81160741674634,73.07679690339249 72.90061322752533,46.55761061680727 60.40127165181761,22.33214043481351 "/>
    <path id="path-7" opacity="1" fill-rule="evenodd" d="M32.519785675946196,14.47917146209079 C32.519785675946196,14.47917146209079 32.519785675946196,41.23403457771736 32.519785675946196,41.23403457771736 L53.41704496623696,25.723969003441084 C53.41704496623696,25.723969003441084 49.26605674218561,21.300353659118493 43.88738116186936,18.406092880655443 C38.82715049292075,15.683187039538948 32.519785675946196,14.47917146209079 32.519785675946196,14.47917146209079Z"/>
  </defs>
  <g opacity="1">
    <g opacity="1">
      <g transform="translate(46.845808492428034, 12.56020517861117) rotate(2.0000007151283343) translate(-46.845808492428034, -12.56020517861117)" opacity="1">
        <g transform="translate(37.163608344830216, 8.039036711644851) rotate(359.000128365536) translate(-37.163608344830216, -8.039036711644851)" opacity="1">
          <use xlink:href="#ellipse-1" fill="rgb(200,200,200)" fill-opacity="1"/>
        </g>
        <g transform="translate(42.6316134641578, 8.978048624015424) rotate(359.000128365536) translate(-42.6316134641578, -8.978048624015424)" opacity="1">
          <use xlink:href="#ellipse-2" fill="rgb(200,200,200)" fill-opacity="1"/>
        </g>
        <g transform="translate(47.61202577029668, 10.821294229778712) rotate(359.000128365536) translate(-47.61202577029668, -10.821294229778712)" opacity="1">
          <use xlink:href="#ellipse-3" fill="rgb(200,200,200)" fill-opacity="1"/>
        </g>
        <g transform="translate(52.48795390217902, 13.603551747911208) rotate(359.000128365536) translate(-52.48795390217902, -13.603551747911208)" opacity="1">
          <use xlink:href="#ellipse-4" fill="rgb(200,200,200)" fill-opacity="1"/>
        </g>
        <g transform="translate(56.52800864002587, 17.08137364557754) rotate(359.000128365536) translate(-56.52800864002587, -17.08137364557754)" opacity="1">
          <use xlink:href="#ellipse-5" fill="rgb(200,200,200)" fill-opacity="1"/>
        </g>
      </g>
      <g transform="translate(35.543299422241, 35.18356180175953) rotate(1.0000003575641672) translate(-35.543299422241, -35.18356180175953)" opacity="1">
        <use xlink:href="#path-6" fill-opacity="0" stroke="rgb(151,151,151)" stroke-opacity="1" stroke-width="3" stroke-linecap="round" stroke-linejoin="miter"/>
      </g>
      <g transform="translate(42.96841532109158, 27.856603019904075) rotate(1.0000003575641672) translate(-42.96841532109158, -27.856603019904075)" opacity="1">
        <use xlink:href="#path-7" fill="rgb(232,232,232)" fill-opacity="1"/>
      </g>
    </g>
  </g>
</svg>