<?xml version="1.0" encoding="utf-8"?>
<svg version="1.1" xmlns="http://www.w3.org/2000/svg" xmlns:xlink="http://www.w3.org/1999/xlink" height="573.7046301094801" width="493">
  <defs>
    <path id="path-1" opacity="1" fill-rule="evenodd" d="M260.5,2.3523150547398473 L260.5,571.3523150547398 "/>
    <path id="path-2" opacity="1" fill-rule="evenodd" d="M260.5,2.3523150547393925 L260.5,571.3523150547404 "/>
    <path id="path-3" opacity="1" fill-rule="evenodd" d="M260.5,2.3523150547393925 L260.5,571.3523150547404 "/>
    <path id="path-4" opacity="1" fill-rule="evenodd" d="M260.5,2.3523150547393925 L260.5,571.3523150547404 "/>
    <path id="path-5" opacity="1" fill-rule="evenodd" d="M258.5,2.3523150547398473 L262.5,571.3523150547398 "/>
    <path id="path-6" opacity="1" fill-rule="evenodd" d="M258.5,2.3523150547398473 L262.5,571.3523150547398 "/>
    <rect id="rect-7" opacity="1" x="0" y="103.85231505473939" width="493" height="277" rx="0" ry="0"/>
    <path id="path-8" opacity="1" fill-rule="evenodd" d="M357.2966922939086,443.7722144512634 C357.2966922939086,443.7722144512634 339.52298069959147,378.25079096074927 370.5756267743915,344.4467707875077 C412.33623344446323,298.9860268972302 493.79336718764824,137.74602451306288 344.7656484408796,55.03924355019198 C188.9476416432612,-9.052897810305161 71.87047373002221,108.44991994620095 102.59434863728961,217.76149190000498 C87.23743854400949,246.4811258129947 63.99620836426,271.8839587991313 62.09728520274071,286.096725398889 C60.19836204122142,300.3094919986467 86.68168787643458,298.945308352796 90.58901211303626,307.6171792856085 C94.49633634963794,316.289050218421 81.9419523049475,325.690030187854 81.9419523049475,330.1397536694682 C81.9419523049475,334.5894771510825 90.58901211303626,336.4494216873981 90.58901211303626,340.6033663519695 C90.58901211303626,344.757311016541 81.9419523049475,341.47442795837054 81.9419523049475,348.15206631139785 C81.9419523049475,354.8297046644251 90.58901211303626,359.1308650415489 90.58901211303626,365.7837385760666 C90.58901211303626,372.43661211058435 79.08323453933302,383.34742853357295 85.41342763309372,404.8376302722026 C91.74362072685443,426.32783201083225 142.82612641187268,397.69250260881455 148.59418452416747,408.4242411768379 C154.36224263646238,419.15597974486127 154.2622067774044,446.4225986468476 154.2622067774044,446.4225986468476 "/>
    <path id="path-9" opacity="1" fill-rule="evenodd" d="M307.23195725121656,282.32645344903915 C291.53558438579853,257.24895701675325 255.52297945981522,254.10633154947712 252.36805252701953,240.5560338597 C250.87901979946463,234.1606918571798 256.6224471148226,229.72384272937424 266.56818841066206,220.43588108778707 C270.8648710825961,216.423367323761 291.53558438579853,214.91109660979728 291.53558438579853,214.91109660979728 C291.53558438579853,214.91109660979728 274.30062820893204,213.33581314596574 264.2645480764568,218.55288096166564 C257.76280006194577,218.35418707136287 252.20890525438813,216.27255380919962 245.7761405412728,214.91109660979728 C253.42077951322977,217.19554521714326 260.5831326908772,218.07769703756244 260.15413100954163,222.68305964909533 C259.5132817349388,229.56262077271575 247.597828945274,240.28969105325547 240.5816574347316,240.5560338597 C214.77445813059387,241.53570801373255 202.28400682000773,225.41029595148106 196.23695094271892,213.81304779839854 C250.1342413522621,175.78498345912186 250.27284787671798,155.57020313467308 285.2583597871011,145.78608042589877 C287.29570908984397,145.21631098448734 288.1058788102731,142.84544051111865 298.805024446688,139.96813880373227 C309.50417008310274,137.0908370963458 317.64350817345803,150.96813880373227 317.64350817345803,150.96813880373227 L298.805024446688,139.96813880373227 C298.805024446688,139.96813880373227 284.56818841066206,147.73163257709572 278.15413100954163,135.58388213826578 C271.74007360842114,123.43613169943586 291.0076536095863,109.29528067733523 291.0076536095863,109.29528067733523 C291.0076536095863,109.29528067733523 270.9552549651503,121.51925450957637 285.70307004589563,145.65383933447913 C280.9787487157512,150.86697467249644 263.74986864801633,137.36354544771956 259.1754159457667,159.78233049020247 C254.60096324351707,182.20111553268532 255.8386894498709,181.7912189478404 255.8386894498709,179.21490180821894 C255.8386894498709,170.13867181499592 250.95666224143778,149.02180200641683 250.95666224143778,149.02180200641683 C250.95666224143778,149.02180200641683 237.76759677937724,147.9298497863644 248.9862080028895,133.34603238338102 C270.9328991280264,131.0282766059516 268.1780693940801,108.26362334526078 270.38397802358986,102.82132933498129 C261.7312113270958,140.8144563174987 237.1818728758218,109.19840798921823 231.62092354471784,124.07283459113361 C230.4302355118275,132.95654272863638 243.8256019600865,133.34603238338102 243.8256019600865,133.34603238338102 C243.8256019600865,133.34603238338102 261.49378041215215,165.45385307702185 256.185063825603,179.81528844836959 C250.87634723905387,194.17672381971713 216.6906036926585,195.86451463743248 194.81656741291613,213.99641588886277 C156.374569335866,221.601816698114 145.28747508599005,184.1777212943511 149.7628957296053,173.89726477728027 C168.22212634922266,172.21806644597604 171.79543126822207,186.90904057151724 172.33045423703769,185.27911201197358 C168.94846056143317,168.34644568981886 114.55337787735537,176.80953628744885 157.33143658399666,121.73351527942376 C157.3020330961506,116.05434232145285 156.1076580896773,161.78442498888575 177.46110858749736,163.864403924874 C185.56319378798713,165.71050338090876 196.4635455718729,178.1680457740806 211.00657744519043,176.2921935104212 C205.71438839908612,176.4155229199545 191.86781798415262,181.19482469657262 180.76636159484767,163.8330591448827 C165.31014249572766,165.76670781399636 152.7142308025861,125.82487584497633 159.0339188393235,120.29528067733523 C173.17027816990606,91.11290779144693 209.37782247769763,91.11290779144693 215.3138752953457,93.04763731504315 C212.8473653663812,99.94132720414721 214.83508899361397,99.4640261766835 215.3138752953457,104.85189155751388 C205.83586233868954,64.32417188334621 280.805024446688,78.3782802791516 289.5114298274343,80.50540190062479 C298.21783520818065,82.632523522098 305.64628866660104,92.55368681656104 307.23195725121656,111.17105817714972 C307.3573631870087,108.85705154399076 326.8721089930709,129.83668133439625 326.1490173443078,141.84109321490195 C329.7396159350265,144.36965384771628 325.4497044941588,121.9864352283189 307.23195725121656,111.17105817714972 C309.3103853621267,98.80318743412138 294.5578025310855,80.06602756899615 294.5578025310855,79.34888760439684 C328.3442327981758,73.56847783222246 372.39661893963273,131.8232918731504 368.85998236849696,141.84109321490195 C377.67983564987736,143.092280707236 378.8198391075608,146.58388213826586 384.1336177646218,156.65383933447913 C389.4473964216827,166.7237965306924 388.3618787271844,200.7194299920891 388.3618787271844,200.7194299920891 L368.85998236849696,143.63162709398142 C368.85998236849696,143.63162709398142 350.9647727917419,169.43751445226488 352.95745107266254,178.77777230000132 C376.7384113956582,175.11043304102833 388.36187872718443,202.12422912104972 388.36187872718443,202.12422912104972 C388.36187872718443,202.12422912104972 384.1336177646218,199.1799815108397 368.85998236849696,195.21216470574396 C375.80022970488636,250.15524061242684 324.1507274998589,257.24895701675325 311.8307686536924,257.24895701675325 C299.51080980752613,257.24895701675325 288.32968464243095,232.80288310448628 285.285151926096,227.82911042281688 C282.240619209761,222.85533774114745 287.21625875916374,217.03688235937634 287.21625875916374,217.03688235937634 C287.21625875916374,217.03688235937634 280.3201271371576,220.34981838778324 290.53338791687315,239.11061247353214 C300.7466486965891,257.8714065592804 328.04941291840987,265.06608947436894 328.04941291840987,292.04352456464403 "/>
    <rect id="rect-10" opacity="1" x="64" y="314.8523150547394" width="364.0000000000003" height="96.99999999999991" rx="0" ry="0"/>
    <rect id="rect-11" opacity="1" x="64" y="191.8523150547394" width="364.0000000000003" height="93.00000000000003" rx="0" ry="0"/>
    <rect id="rect-12" opacity="1" x="64" y="68.8523150547395" width="364.0000000000003" height="92.99999999999974" rx="0" ry="0"/>
    <path id="path-13" opacity="1" fill-rule="evenodd" d="M260.5,2.3523150547398473 L260.5,571.3523150547398 "/>
    <path id="path-14" opacity="1" fill-rule="evenodd" d="M260.5,2.3523150547393925 L260.5,571.3523150547404 "/>
    <path id="path-15" opacity="1" fill-rule="evenodd" d="M260.5,2.3523150547393925 L260.5,571.3523150547404 "/>
    <path id="path-16" opacity="1" fill-rule="evenodd" d="M260.5,2.3523150547393925 L260.5,571.3523150547404 "/>
    <path id="path-17" opacity="1" fill-rule="evenodd" d="M258.5,2.3523150547398473 L262.5,571.3523150547398 "/>
    <path id="path-18" opacity="1" fill-rule="evenodd" d="M258.5,2.3523150547393925 L262.5,571.3523150547394 "/>
  </defs>
  <g opacity="1">
    <g opacity="0.200592">
      <g opacity="0">
        <use xlink:href="#path-1" fill-opacity="0" stroke="rgb(151,151,151)" stroke-opacity="1" stroke-width="1"/>
      </g>
      <g opacity="0">
        <use xlink:href="#path-2" fill-opacity="0" stroke="rgb(151,151,151)" stroke-opacity="1" stroke-width="1"/>
      </g>
      <g opacity="0">
        <use xlink:href="#path-3" fill-opacity="0" stroke="rgb(151,151,151)" stroke-opacity="1" stroke-width="1"/>
      </g>
      <g opacity="0">
        <use xlink:href="#path-4" fill-opacity="0" stroke="rgb(151,151,151)" stroke-opacity="1" stroke-width="1"/>
      </g>
      <g opacity="0">
        <use xlink:href="#path-5" fill-opacity="0" stroke="rgb(151,151,151)" stroke-opacity="1" stroke-width="1"/>
      </g>
      <g opacity="0">
        <use xlink:href="#path-6" fill-opacity="0" stroke="rgb(151,151,151)" stroke-opacity="1" stroke-width="1"/>
      </g>
    </g>
    <g opacity="1">
      <use xlink:href="#rect-7" fill="rgb(243,243,243)" fill-opacity="1"/>
    </g>
    <g opacity="1">
      <g opacity="1">
        <use xlink:href="#path-8" fill-opacity="0" stroke="rgb(0,0,0)" stroke-opacity="1" stroke-width="12"/>
      </g>
      <g opacity="1">
        <use xlink:href="#path-9" fill-opacity="0" stroke="rgb(151,151,151)" stroke-opacity="1" stroke-width="8"/>
      </g>
    </g>
    <g opacity="1">
      <use xlink:href="#rect-10" fill="rgb(178,80,246)" fill-opacity="0.5"/>
    </g>
    <g opacity="1">
      <use xlink:href="#rect-11" fill="rgb(59,192,209)" fill-opacity="0.5"/>
    </g>
    <g opacity="1">
      <use xlink:href="#rect-12" fill="rgb(255,95,68)" fill-opacity="0.5"/>
    </g>
    <g opacity="0.200592">
      <g opacity="0">
        <use xlink:href="#path-13" fill-opacity="0" stroke="rgb(151,151,151)" stroke-opacity="1" stroke-width="1"/>
      </g>
      <g opacity="0">
        <use xlink:href="#path-14" fill-opacity="0" stroke="rgb(151,151,151)" stroke-opacity="1" stroke-width="1"/>
      </g>
      <g opacity="0">
        <use xlink:href="#path-15" fill-opacity="0" stroke="rgb(151,151,151)" stroke-opacity="1" stroke-width="1"/>
      </g>
      <g opacity="0">
        <use xlink:href="#path-16" fill-opacity="0" stroke="rgb(151,151,151)" stroke-opacity="1" stroke-width="1"/>
      </g>
      <g opacity="0">
        <use xlink:href="#path-17" fill-opacity="0" stroke="rgb(151,151,151)" stroke-opacity="1" stroke-width="1"/>
      </g>
      <g opacity="0">
        <use xlink:href="#path-18" fill-opacity="0" stroke="rgb(151,151,151)" stroke-opacity="1" stroke-width="1"/>
      </g>
    </g>
  </g>
</svg>