<?xml version="1.0" encoding="utf-8"?>
<svg version="1.1" xmlns="http://www.w3.org/2000/svg" xmlns:xlink="http://www.w3.org/1999/xlink" height="1114" width="1355">
  <defs>
    <path id="path-1" opacity="1" fill-rule="evenodd" d="M925.5,787 L1054.5,787 C1087.338943957393,787 1114,813.661056042607 1114,846.5 C1114,879.338943957393 1087.338943957393,906 1054.5,906 L925.5,906 C892.661056042607,906 866,879.338943957393 866,846.5 C866,813.661056042607 892.661056042607,787 925.5,787Z"/>
    <path id="path-2" opacity="1" fill-rule="evenodd" d="M749.5,748 L861.5,748 C889.923623761441,748 913,771.076376238559 913,799.5 C913,827.923623761441 889.923623761441,851 861.5,851 L749.5,851 C721.076376238559,851 698,827.923623761441 698,799.5 C698,771.076376238559 721.076376238559,748 749.5,748Z"/>
    <path id="path-3" opacity="1" fill-rule="evenodd" d="M218.5,982 L405.5,982 C437.78702893289903,982 464,1008.212971067101 464,1040.5 C464,1072.787028932899 437.78702893289903,1099 405.5,1099 L218.5,1099 C186.21297106710102,1099 160,1072.787028932899 160,1040.5 C160,1008.212971067101 186.212971067101,982 218.5,982Z"/>
    <path id="path-4" opacity="1" fill-rule="evenodd" d="M814,347 L853,347 C901.568522155472,347 941,386.431477844528 941,435 C941,483.568522155472 901.568522155472,523 853,523 L814,523 C765.431477844528,523 726,483.568522155472 726,435 C726,386.431477844528 765.431477844528,347 814,347Z"/>
    <path id="path-5" opacity="1" fill-rule="evenodd" d="M101.5,585 L163.5,585 C208.48107449626102,585 245,621.518925503739 245,666.5 C245,711.481074496261 208.48107449626102,748 163.5,748 L101.5,748 C56.51892550373901,748 20.000000000000014,711.481074496261 20,666.5 C20,621.518925503739 56.518925503738984,585 101.5,585Z"/>
    <path id="path-6" opacity="1" fill-rule="evenodd" d="M1274.5,15 L1302.5,15 C1323.196813418525,15 1340,31.803186581475 1340,52.5 C1340,73.196813418525 1323.196813418525,90 1302.5,90 L1274.5,90 C1253.803186581475,90 1237,73.19681341852501 1237,52.5 C1237,31.803186581475003 1253.803186581475,15.000000000000007 1274.5,15Z"/>
    <path id="path-7" opacity="1" fill-rule="evenodd" d="M108.5,15 C136.923623761441,15 160,38.076376238559 160,66.5 L160,117.5 C160,145.923623761441 136.923623761441,169 108.5,169 C80.076376238559,169 57.00000000000001,145.923623761441 57,117.5 L57,66.5 C57,38.07637623855901 80.07637623855899,15.000000000000007 108.5,15 L108.5,15Z"/>
  </defs>
  <g opacity="1">
    <g opacity="0.1">
      <use xlink:href="#path-1" fill-opacity="0" stroke="rgb(0,119,139)" stroke-opacity="1" stroke-width="40"/>
    </g>
    <g opacity="0.1">
      <use xlink:href="#path-2" fill-opacity="0" stroke="rgb(233,233,233)" stroke-opacity="1" stroke-width="50"/>
    </g>
    <g opacity="0.1">
      <use xlink:href="#path-3" fill-opacity="0" stroke="rgb(48,159,136)" stroke-opacity="1" stroke-width="30"/>
    </g>
    <g opacity="0.1">
      <use xlink:href="#path-4" fill-opacity="0" stroke="rgb(78,48,102)" stroke-opacity="1" stroke-width="50"/>
    </g>
    <g opacity="0.1">
      <use xlink:href="#path-5" fill-opacity="0" stroke="rgb(207,114,226)" stroke-opacity="1" stroke-width="40"/>
    </g>
    <g opacity="0.1">
      <use xlink:href="#path-6" fill-opacity="0" stroke="rgb(80,227,194)" stroke-opacity="1" stroke-width="30"/>
    </g>
    <g opacity="0.1">
      <use xlink:href="#path-7" fill-opacity="0" stroke="rgb(0,119,139)" stroke-opacity="1" stroke-width="30"/>
    </g>
  </g>
</svg>