<?xml version="1.0" encoding="utf-8"?>
<svg version="1.1" xmlns="http://www.w3.org/2000/svg" xmlns:xlink="http://www.w3.org/1999/xlink" height="752" width="577">
  <defs>
    <rect id="rect-1" opacity="1" x="85" y="80" width="377" height="552" rx="0" ry="0"/>
    <filter id="filter-2" filterUnits="userSpaceOnUse" x="-50%" y="-50%" width="200%" height="200%">
      <feOffset in="SourceAlpha" result="shadow-1-feOffset-shadow" dx="15" dy="20"/>
      <feGaussianBlur in="shadow-1-feOffset-shadow" result="shadow-1-feGaussianBlur-shadow" stdDeviation="50"/>
      <feColorMatrix in="shadow-1-feGaussianBlur-shadow" result="shadow-1-feColorMatrix-shadow" type="matrix" values="0 0 0 0 0  0 0 0 0 0  0 0 0 0 0  0 0 0 0.3 0"/>
    </filter>
    <rect id="rect-3" opacity="1" x="71" y="63" width="406" height="583" rx="0" ry="0"/>
    <path id="path-4" opacity="1" fill-rule="evenodd" d="M99.5,158 L247.5,158 C248.879787561235,158 250,159.120212438765 250,160.5 C250,161.879787561235 248.879787561235,163 247.5,163 L99.5,163 C98.120212438765,163 97,161.879787561235 97,160.5 C97,159.120212438765 98.120212438765,158 99.5,158Z"/>
    <path id="path-5" opacity="1" fill-rule="evenodd" d="M99.5,205 L177.5,205 C178.879787561235,205 180,206.120212438765 180,207.5 C180,208.879787561235 178.879787561235,210 177.5,210 L99.5,210 C98.120212438765,210 97,208.879787561235 97,207.5 C97,206.120212438765 98.120212438765,205 99.5,205Z"/>
    <path id="path-6" opacity="1" fill-rule="evenodd" d="M99.5,239 L207.5,239 C208.879787561235,239 210,240.120212438765 210,241.5 C210,242.879787561235 208.879787561235,244 207.5,244 L99.5,244 C98.120212438765,244 97,242.879787561235 97,241.5 C97,240.120212438765 98.120212438765,239 99.5,239Z"/>
    <path id="path-7" opacity="1" fill-rule="evenodd" d="M99.5,349 L277.5,349 C278.879787561235,349 280,350.120212438765 280,351.5 C280,352.879787561235 278.879787561235,354 277.5,354 L99.5,354 C98.120212438765,354 97,352.879787561235 97,351.5 C97,350.120212438765 98.120212438765,349 99.5,349Z"/>
    <path id="path-8" opacity="1" fill-rule="evenodd" d="M99.5,364 L257.5,364 C258.879787561235,364 260,365.120212438765 260,366.5 C260,367.879787561235 258.879787561235,369 257.5,369 L99.5,369 C98.120212438765,369 97,367.879787561235 97,366.5 C97,365.120212438765 98.120212438765,364 99.5,364Z"/>
    <path id="path-9" opacity="1" fill-rule="evenodd" d="M99.5,474 L227.5,474 C228.879787561235,474 230,475.120212438765 230,476.5 C230,477.879787561235 228.879787561235,479 227.5,479 L99.5,479 C98.120212438765,479 97,477.879787561235 97,476.5 C97,475.120212438765 98.120212438765,474 99.5,474Z"/>
    <path id="path-10" opacity="1" fill-rule="evenodd" d="M99.5,585 L227.5,585 C228.879787561235,585 230,586.120212438765 230,587.5 C230,588.879787561235 228.879787561235,590 227.5,590 L99.5,590 C98.120212438765,590 97,588.879787561235 97,587.5 C97,586.120212438765 98.120212438765,585 99.5,585Z"/>
    <path id="path-11" opacity="1" fill-rule="evenodd" d="M98,499 L439,499 C439.551915024494,499 440,499.448084975506 440,500 C440,500.551915024494 439.551915024494,501 439,501 L98,501 C97.448084975506,501 97,500.551915024494 97,500 C97,499.448084975506 97.448084975506,499 98,499Z"/>
    <path id="path-12" opacity="1" fill-rule="evenodd" d="M98,610 L439,610 C439.551915024494,610 440,610.448084975506 440,611 C440,611.551915024494 439.551915024494,612 439,612 L98,612 C97.448084975506,612 97,611.551915024494 97,611 C97,610.448084975506 97.448084975506,610 98,610Z"/>
    <path id="path-13" opacity="1" fill-rule="evenodd" d="M98,509 L424,509 C424.551915024494,509 425,509.448084975506 425,510 C425,510.551915024494 424.551915024494,511 424,511 L98,511 C97.448084975506,511 97,510.551915024494 97,510 C97,509.448084975506 97.448084975506,509 98,509Z"/>
    <path id="path-14" opacity="1" fill-rule="evenodd" d="M98,389 L439,389 C439.551915024494,389 440,389.448084975506 440,390 C440,390.551915024494 439.551915024494,391 439,391 L98,391 C97.448084975506,391 97,390.551915024494 97,390 C97,389.448084975506 97.448084975506,389 98,389Z"/>
    <path id="path-15" opacity="1" fill-rule="evenodd" d="M98,399 L424,399 C424.551915024494,399 425,399.448084975506 425,400 C425,400.551915024494 424.551915024494,401 424,401 L98,401 C97.448084975506,401 97,400.551915024494 97,400 C97,399.448084975506 97.448084975506,399 98,399Z"/>
    <path id="path-16" opacity="1" fill-rule="evenodd" d="M98,264 L439,264 C439.551915024494,264 440,264.448084975506 440,265 C440,265.551915024494 439.551915024494,266 439,266 L98,266 C97.448084975506,266 97,265.551915024494 97,265 C97,264.448084975506 97.448084975506,264 98,264Z"/>
    <path id="path-17" opacity="1" fill-rule="evenodd" d="M98,274 L424,274 C424.551915024494,274 425,274.448084975506 425,275 C425,275.551915024494 424.551915024494,276 424,276 L98,276 C97.448084975506,276 97,275.551915024494 97,275 C97,274.448084975506 97.448084975506,274 98,274Z"/>
    <path id="path-18" opacity="1" fill-rule="evenodd" d="M98,284 L439,284 C439.551915024494,284 440,284.448084975506 440,285 C440,285.551915024494 439.551915024494,286 439,286 L98,286 C97.448084975506,286 97,285.551915024494 97,285 C97,284.448084975506 97.448084975506,284 98,284Z"/>
    <path id="path-19" opacity="1" fill-rule="evenodd" d="M98,295 L424,295 C424.551915024494,295 425,295.448084975506 425,296 C425,296.551915024494 424.551915024494,297 424,297 L98,297 C97.448084975506,297 97,296.551915024494 97,296 C97,295.448084975506 97.448084975506,295 98,295Z"/>
    <path id="path-20" opacity="1" fill-rule="evenodd" d="M98,305 L249,305 C249.551915024494,305 250,305.448084975506 250,306 C250,306.551915024494 249.551915024494,307 249,307 L98,307 C97.448084975506,307 97,306.551915024494 97,306 C97,305.448084975506 97.448084975506,305 98,305Z"/>
    <path id="path-21" opacity="1" fill-rule="evenodd" d="M98,409 L439,409 C439.551915024494,409 440,409.448084975506 440,410 C440,410.551915024494 439.551915024494,411 439,411 L98,411 C97.448084975506,411 97,410.551915024494 97,410 C97,409.448084975506 97.448084975506,409 98,409Z"/>
    <path id="path-22" opacity="1" fill-rule="evenodd" d="M98,420 L424,420 C424.551915024494,420 425,420.448084975506 425,421 C425,421.551915024494 424.551915024494,422 424,422 L98,422 C97.448084975506,422 97,421.551915024494 97,421 C97,420.448084975506 97.448084975506,420 98,420Z"/>
    <path id="path-23" opacity="1" fill-rule="evenodd" d="M98,430 L379,430 C379.551915024494,430 380,430.448084975506 380,431 C380,431.551915024494 379.551915024494,432 379,432 L98,432 C97.448084975506,432 97,431.551915024494 97,431 C97,430.448084975506 97.448084975506,430 98,430Z"/>
    <path id="path-24" opacity="1" fill-rule="evenodd" d="M98,519 L439,519 C439.551915024494,519 440,519.448084975506 440,520 C440,520.551915024494 439.551915024494,521 439,521 L98,521 C97.448084975506,521 97,520.551915024494 97,520 C97,519.448084975506 97.448084975506,519 98,519Z"/>
    <path id="path-25" opacity="1" fill-rule="evenodd" d="M98,530 L424,530 C424.551915024494,530 425,530.448084975506 425,531 C425,531.551915024494 424.551915024494,532 424,532 L98,532 C97.448084975506,532 97,531.551915024494 97,531 C97,530.448084975506 97.448084975506,530 98,530Z"/>
    <path id="path-26" opacity="1" fill-rule="evenodd" d="M98,540 L249,540 C249.551915024494,540 250,540.448084975506 250,541 C250,541.551915024494 249.551915024494,542 249,542 L98,542 C97.448084975506,542 97,541.551915024494 97,541 C97,540.448084975506 97.448084975506,540 98,540Z"/>
    <path id="path-27" opacity="1" fill-rule="evenodd" d="M405.5,95 L443.5,95 C444.879787561235,95 446,96.120212438765 446,97.5 C446,98.879787561235 444.879787561235,100 443.5,100 L405.5,100 C404.120212438765,100 403,98.879787561235 403,97.5 C403,96.120212438765 404.120212438765,95 405.5,95Z"/>
  </defs>
  <g opacity="1">
    <g opacity="1">
      <g opacity="1">
        <use xlink:href="#rect-1" fill="black" filter="url(#filter-2)" stroke="black" stroke-opacity="0" stroke-width="0"/>
        <use xlink:href="#rect-1" fill="rgb(0,0,0)" fill-opacity="1"/>
      </g>
      <g opacity="1">
        <use xlink:href="#rect-3" fill="rgb(244,189,67)" fill-opacity="1"/>
      </g>
    </g>
    <g opacity="1">
      <g opacity="1">
        <use xlink:href="#path-4" fill="rgb(255,255,255)" fill-opacity="0.53"/>
      </g>
      <g opacity="1">
        <use xlink:href="#path-5" fill="rgb(255,255,255)" fill-opacity="0.53"/>
      </g>
      <g opacity="1">
        <use xlink:href="#path-6" fill="rgb(255,255,255)" fill-opacity="0.53"/>
      </g>
      <g opacity="1">
        <use xlink:href="#path-7" fill="rgb(255,255,255)" fill-opacity="0.53"/>
      </g>
      <g opacity="1">
        <use xlink:href="#path-8" fill="rgb(255,255,255)" fill-opacity="0.53"/>
      </g>
      <g opacity="1">
        <use xlink:href="#path-9" fill="rgb(255,255,255)" fill-opacity="0.53"/>
      </g>
      <g opacity="1">
        <use xlink:href="#path-10" fill="rgb(255,255,255)" fill-opacity="0.53"/>
      </g>
      <g opacity="1">
        <use xlink:href="#path-11" fill="rgb(255,255,255)" fill-opacity="0.53"/>
      </g>
      <g opacity="1">
        <use xlink:href="#path-12" fill="rgb(60,53,33)" fill-opacity="0.25"/>
      </g>
      <g opacity="1">
        <use xlink:href="#path-13" fill="rgb(255,255,255)" fill-opacity="0.53"/>
      </g>
      <g opacity="1">
        <use xlink:href="#path-14" fill="rgb(255,255,255)" fill-opacity="0.53"/>
      </g>
      <g opacity="1">
        <use xlink:href="#path-15" fill="rgb(255,255,255)" fill-opacity="0.53"/>
      </g>
      <g opacity="1">
        <use xlink:href="#path-16" fill="rgb(255,255,255)" fill-opacity="0.53"/>
      </g>
      <g opacity="1">
        <use xlink:href="#path-17" fill="rgb(255,255,255)" fill-opacity="0.53"/>
      </g>
      <g opacity="1">
        <use xlink:href="#path-18" fill="rgb(255,255,255)" fill-opacity="0.53"/>
      </g>
      <g opacity="1">
        <use xlink:href="#path-19" fill="rgb(255,255,255)" fill-opacity="0.53"/>
      </g>
      <g opacity="1">
        <use xlink:href="#path-20" fill="rgb(255,255,255)" fill-opacity="0.53"/>
      </g>
      <g opacity="1">
        <use xlink:href="#path-21" fill="rgb(255,255,255)" fill-opacity="0.53"/>
      </g>
      <g opacity="1">
        <use xlink:href="#path-22" fill="rgb(255,255,255)" fill-opacity="0.53"/>
      </g>
      <g opacity="1">
        <use xlink:href="#path-23" fill="rgb(255,255,255)" fill-opacity="0.53"/>
      </g>
      <g opacity="1">
        <use xlink:href="#path-24" fill="rgb(255,255,255)" fill-opacity="0.53"/>
      </g>
      <g opacity="1">
        <use xlink:href="#path-25" fill="rgb(255,255,255)" fill-opacity="0.53"/>
      </g>
      <g opacity="1">
        <use xlink:href="#path-26" fill="rgb(255,255,255)" fill-opacity="0.53"/>
      </g>
      <g opacity="1">
        <use xlink:href="#path-27" fill="rgb(255,255,255)" fill-opacity="0.53"/>
      </g>
    </g>
  </g>
</svg>