<?xml version="1.0" encoding="utf-8"?>
<!-- Generator: Adobe Illustrator 23.0.6, SVG Export Plug-In . SVG Version: 6.00 Build 0)  -->
<svg version="1.1" id="Layer_1" xmlns="http://www.w3.org/2000/svg" xmlns:xlink="http://www.w3.org/1999/xlink" x="0px" y="0px"
	 viewBox="0 0 406 583" style="enable-background:new 0 0 406 583;" xml:space="preserve">
<style type="text/css">
	.st0{filter:url(#filter-2);}
	.st1{fill:#F4BD43;}
	.st2{fill-rule:evenodd;clip-rule:evenodd;fill:#FFFFFF;fill-opacity:0.53;}
	.st3{fill-rule:evenodd;clip-rule:evenodd;fill:#3C3521;fill-opacity:0.25;}
</style>
<filter  filterUnits="userSpaceOnUse" height="200%" id="filter-2" width="200%" x="-50%" y="-50%">
	<feOffset  dx="15" dy="20" in="SourceAlpha" result="shadow-1-feOffset-shadow"></feOffset>
	<feGaussianBlur  in="shadow-1-feOffset-shadow" result="shadow-1-feGaussianBlur-shadow" stdDeviation="50"></feGaussianBlur>
	
		<feColorMatrix  in="shadow-1-feGaussianBlur-shadow" result="shadow-1-feColorMatrix-shadow" type="matrix" values="0 0 0 0 0  0 0 0 0 0  0 0 0 0 0  0 0 0 0.3 0">
		</feColorMatrix>
</filter>
<g>
	<g>
		<g>
			<g class="st0">
				<rect id="rect-1_1_" x="14" y="17" width="377" height="552"/>
			</g>
			<g>
				<rect x="14" y="17" width="377" height="552"/>
			</g>
		</g>
		<g>
			<g>
				<rect id="rect-3" class="st1" width="406" height="583"/>
			</g>
		</g>
	</g>
	<g>
		<g>
			<g>
				<path id="path-4" class="st2" d="M28.5,95h148c1.4,0,2.5,1.1,2.5,2.5s-1.1,2.5-2.5,2.5h-148c-1.4,0-2.5-1.1-2.5-2.5
					S27.1,95,28.5,95z"/>
			</g>
		</g>
		<g>
			<g>
				<path id="path-5" class="st2" d="M28.5,142h78c1.4,0,2.5,1.1,2.5,2.5s-1.1,2.5-2.5,2.5h-78c-1.4,0-2.5-1.1-2.5-2.5
					S27.1,142,28.5,142z"/>
			</g>
		</g>
		<g>
			<g>
				<path id="path-6" class="st2" d="M28.5,176h108c1.4,0,2.5,1.1,2.5,2.5s-1.1,2.5-2.5,2.5h-108c-1.4,0-2.5-1.1-2.5-2.5
					S27.1,176,28.5,176z"/>
			</g>
		</g>
		<g>
			<g>
				<path id="path-7" class="st2" d="M28.5,286h178c1.4,0,2.5,1.1,2.5,2.5s-1.1,2.5-2.5,2.5h-178c-1.4,0-2.5-1.1-2.5-2.5
					S27.1,286,28.5,286z"/>
			</g>
		</g>
		<g>
			<g>
				<path id="path-8" class="st2" d="M28.5,301h158c1.4,0,2.5,1.1,2.5,2.5s-1.1,2.5-2.5,2.5h-158c-1.4,0-2.5-1.1-2.5-2.5
					S27.1,301,28.5,301z"/>
			</g>
		</g>
		<g>
			<g>
				<path id="path-9" class="st2" d="M28.5,411h128c1.4,0,2.5,1.1,2.5,2.5s-1.1,2.5-2.5,2.5h-128c-1.4,0-2.5-1.1-2.5-2.5
					S27.1,411,28.5,411z"/>
			</g>
		</g>
		<g>
			<g>
				<path id="path-10" class="st2" d="M28.5,522h128c1.4,0,2.5,1.1,2.5,2.5s-1.1,2.5-2.5,2.5h-128c-1.4,0-2.5-1.1-2.5-2.5
					S27.1,522,28.5,522z"/>
			</g>
		</g>
		<g>
			<g>
				<path id="path-11" class="st2" d="M27,436h341c0.6,0,1,0.4,1,1s-0.4,1-1,1H27c-0.6,0-1-0.4-1-1S26.4,436,27,436z"/>
			</g>
		</g>
		<g>
			<g>
				<path id="path-12" class="st3" d="M27,547h341c0.6,0,1,0.4,1,1s-0.4,1-1,1H27c-0.6,0-1-0.4-1-1S26.4,547,27,547z"/>
			</g>
		</g>
		<g>
			<g>
				<path id="path-13" class="st2" d="M27,446h326c0.6,0,1,0.4,1,1s-0.4,1-1,1H27c-0.6,0-1-0.4-1-1S26.4,446,27,446z"/>
			</g>
		</g>
		<g>
			<g>
				<path id="path-14" class="st2" d="M27,326h341c0.6,0,1,0.4,1,1s-0.4,1-1,1H27c-0.6,0-1-0.4-1-1S26.4,326,27,326z"/>
			</g>
		</g>
		<g>
			<g>
				<path id="path-15" class="st2" d="M27,336h326c0.6,0,1,0.4,1,1s-0.4,1-1,1H27c-0.6,0-1-0.4-1-1S26.4,336,27,336z"/>
			</g>
		</g>
		<g>
			<g>
				<path id="path-16" class="st2" d="M27,201h341c0.6,0,1,0.4,1,1s-0.4,1-1,1H27c-0.6,0-1-0.4-1-1S26.4,201,27,201z"/>
			</g>
		</g>
		<g>
			<g>
				<path id="path-17" class="st2" d="M27,211h326c0.6,0,1,0.4,1,1s-0.4,1-1,1H27c-0.6,0-1-0.4-1-1S26.4,211,27,211z"/>
			</g>
		</g>
		<g>
			<g>
				<path id="path-18" class="st2" d="M27,221h341c0.6,0,1,0.4,1,1s-0.4,1-1,1H27c-0.6,0-1-0.4-1-1S26.4,221,27,221z"/>
			</g>
		</g>
		<g>
			<g>
				<path id="path-19" class="st2" d="M27,232h326c0.6,0,1,0.4,1,1s-0.4,1-1,1H27c-0.6,0-1-0.4-1-1S26.4,232,27,232z"/>
			</g>
		</g>
		<g>
			<g>
				<path id="path-20" class="st2" d="M27,242h151c0.6,0,1,0.4,1,1s-0.4,1-1,1H27c-0.6,0-1-0.4-1-1S26.4,242,27,242z"/>
			</g>
		</g>
		<g>
			<g>
				<path id="path-21" class="st2" d="M27,346h341c0.6,0,1,0.4,1,1s-0.4,1-1,1H27c-0.6,0-1-0.4-1-1S26.4,346,27,346z"/>
			</g>
		</g>
		<g>
			<g>
				<path id="path-22" class="st2" d="M27,357h326c0.6,0,1,0.4,1,1s-0.4,1-1,1H27c-0.6,0-1-0.4-1-1S26.4,357,27,357z"/>
			</g>
		</g>
		<g>
			<g>
				<path id="path-23" class="st2" d="M27,367h281c0.6,0,1,0.4,1,1s-0.4,1-1,1H27c-0.6,0-1-0.4-1-1S26.4,367,27,367z"/>
			</g>
		</g>
		<g>
			<g>
				<path id="path-24" class="st2" d="M27,456h341c0.6,0,1,0.4,1,1s-0.4,1-1,1H27c-0.6,0-1-0.4-1-1S26.4,456,27,456z"/>
			</g>
		</g>
		<g>
			<g>
				<path id="path-25" class="st2" d="M27,467h326c0.6,0,1,0.4,1,1s-0.4,1-1,1H27c-0.6,0-1-0.4-1-1S26.4,467,27,467z"/>
			</g>
		</g>
		<g>
			<g>
				<path id="path-26" class="st2" d="M27,477h151c0.6,0,1,0.4,1,1s-0.4,1-1,1H27c-0.6,0-1-0.4-1-1S26.4,477,27,477z"/>
			</g>
		</g>
		<g>
			<g>
				<path id="path-27" class="st2" d="M334.5,32h38c1.4,0,2.5,1.1,2.5,2.5s-1.1,2.5-2.5,2.5h-38c-1.4,0-2.5-1.1-2.5-2.5
					S333.1,32,334.5,32z"/>
			</g>
		</g>
	</g>
</g>
</svg>
