<?xml version="1.0" encoding="utf-8"?>
<!-- Generator: Adobe Illustrator 15.0.2, SVG Export Plug-In . SVG Version: 6.00 Build 0)  -->
<!DOCTYPE svg PUBLIC "-//W3C//DTD SVG 1.1//EN" "http://www.w3.org/Graphics/SVG/1.1/DTD/svg11.dtd">
<svg version="1.1" id="layer_1" xmlns="http://www.w3.org/2000/svg" xmlns:xlink="http://www.w3.org/1999/xlink" x="0px" y="0px"
	 width="600px" height="600px" viewBox="0 0 600 600" enable-background="new 0 0 600 600" xml:space="preserve">
<g>
	<defs>
		<rect id="SVGID_1_" width="600" height="600"/>
	</defs>
	<clipPath id="SVGID_2_">
		<use xlink:href="#SVGID_1_"  overflow="visible"/>
	</clipPath>
	<rect clip-path="url(#SVGID_2_)" fill="#FFFFFF" width="600" height="600"/>
	<g clip-path="url(#SVGID_2_)">
		<g>
			<g>
				<polygon fill="#769AFF" points="254.732,7.992 0,7.992 0,79.264 241.986,79.264 254.732,66.518 				"/>
			</g>
			<g>
				<polygon fill="#F8B55B" points="241.987,79.265 254.733,66.519 241.987,66.519 				"/>
			</g>
		</g>
		<text transform="matrix(1 0 0 1 40.1851 40.4917)" fill="#474F59" font-family="'Arial-BoldMT'" font-size="17.25">ONLINE EDUCATION</text>
		<text transform="matrix(1 0 0 1 19.7651 62.9917)" fill="#FFFFFF" font-family="'Arial-BoldMT'" font-size="19.5">48x48 PIXEL PERFECT</text>
	</g>
	<g clip-path="url(#SVGID_2_)">
		<text transform="matrix(1 0 0 1 44.6294 173.2944)" fill="#474F59" font-family="'ArialMT'" font-size="8.4667">STUDENT</text>
		<text transform="matrix(1 0 0 1 151.9292 173.2944)" fill="#474F59" font-family="'ArialMT'" font-size="8.4667">STUDENT DESK</text>
		<text transform="matrix(1 0 0 1 267.4521 173.2944)" fill="#474F59" font-family="'ArialMT'" font-size="8.4667">LEARNING TOOLS</text>
		<text transform="matrix(1 0 0 1 389.5757 173.2944)" fill="#474F59" font-family="'ArialMT'" font-size="8.4667">ONLINE COURSE</text>
		<text transform="matrix(1 0 0 1 528.1577 173.2944)" fill="#474F59" font-family="'ArialMT'" font-size="8.4667">E-BOOK</text>
		<text transform="matrix(1 0 0 1 140.4033 380.2944)" fill="#474F59" font-family="'ArialMT'" font-size="8.4667">CREATIVE TEACHING</text>
		<text transform="matrix(1 0 0 1 34.043 380.2944)" fill="#474F59" font-family="'ArialMT'" font-size="8.4667">GROUP CLASS</text>
		<text transform="matrix(1 0 0 1 256.646 380.2944)" fill="#474F59" font-family="'ArialMT'" font-size="8.4667">KNOWLEDGE GROWTH</text>
		<text transform="matrix(1 0 0 1 391.4561 380.2944)" fill="#474F59" font-family="'ArialMT'" font-size="8.4667">SHARING IDEAS</text>
		<text transform="matrix(1 0 0 1 527.2173 380.2944)" fill="#474F59" font-family="'ArialMT'" font-size="8.4667">SPORTS</text>
		<text transform="matrix(1 0 0 1 36.8716 276.0444)" fill="#474F59" font-family="'ArialMT'" font-size="8.4667">CERTIFICATE</text>
		<text transform="matrix(1 0 0 1 159.2197 276.0444)" fill="#474F59" font-family="'ArialMT'" font-size="8.4667">UNIVERSITY</text>
		<text transform="matrix(1 0 0 1 285.7598 276.0444)" fill="#474F59" font-family="'ArialMT'" font-size="8.4667">SCIENCE</text>
		<text transform="matrix(1 0 0 1 380.8726 276.0444)" fill="#474F59" font-family="'ArialMT'" font-size="8.4667">EDUCATION FOR ALL</text>
		<text transform="matrix(1 0 0 1 510.5146 276.0444)" fill="#474F59" font-family="'ArialMT'" font-size="8.4667">CLOUD LIBRARY</text>
		<text transform="matrix(1 0 0 1 12.8799 482.2944)" fill="#474F59" font-family="'ArialMT'" font-size="8.4667">POWER OF KNOWLEDGE</text>
		<text transform="matrix(1 0 0 1 166.7505 482.2944)" fill="#474F59" font-family="'ArialMT'" font-size="8.4667">WISDOM</text>
		<text transform="matrix(1 0 0 1 268.3989 482.2944)" fill="#474F59" font-family="'ArialMT'" font-size="8.4667">READING ONLINE</text>
		<text transform="matrix(1 0 0 1 378.2808 482.2944)" fill="#474F59" font-family="'ArialMT'" font-size="8.4667">LANGUAGE LEARNING</text>
		<text transform="matrix(1 0 0 1 506.043 482.2944)" fill="#474F59" font-family="'ArialMT'" font-size="8.4667">CLASS TIMETABLE</text>
		<text transform="matrix(1 0 0 1 42.752 585.7944)" fill="#474F59" font-family="'ArialMT'" font-size="8.4667">STUDYING</text>
		<text transform="matrix(1 0 0 1 141.5752 585.7944)" fill="#474F59" font-family="'ArialMT'" font-size="8.4667">GLOBAL EDUCATION</text>
		<text transform="matrix(1 0 0 1 279.6997 585.7944)" fill="#474F59" font-family="'ArialMT'" font-size="8.4667">KNOW-HOW</text>
		<text transform="matrix(1 0 0 1 379.9326 585.7944)" fill="#474F59" font-family="'ArialMT'" font-size="8.4667">ONLINE CONSULTING</text>
		<text transform="matrix(1 0 0 1 528.8657 585.7944)" fill="#474F59" font-family="'ArialMT'" font-size="8.4667">AWARD</text>
	</g>
	<g clip-path="url(#SVGID_2_)">
		<g>
			<path fill="#F8B55B" d="M77.601,120.463c-1.125-0.544-2.303-1.002-3.512-1.394c-0.592-0.19-1.188-0.37-1.795-0.527
				c-5.237-1.349-10.979-1.349-16.216,0l0,0c-0.61,0.158-1.212,0.34-1.808,0.532c-1.205,0.39-2.379,0.847-3.499,1.389
				c-2.271,1.101-3.683,2.186-3.683,4.709v11.685h34.195v-11.685C81.283,122.649,79.872,121.564,77.601,120.463z"/>
			<path fill="#556DD3" d="M70.179,118.077c-2.594-2.572-1.729-5.963-1.708-6.045c-1.273,0.923-2.742,1.45-4.305,1.45
				c-1.568,0-3.039-0.529-4.314-1.458c0.001,0.006,0.925,3.458-1.698,6.06c0,2.076,6.012,3.783,6.012,3.783
				S70.179,120.154,70.179,118.077L70.179,118.077z"/>
			<path fill="#769AFF" d="M73.296,103.053c-0.115-0.01-0.229,0.009-0.341,0.043c0-0.337-0.01-1.285-0.024-1.602
				c-0.004-0.098-0.019-0.318-0.061-0.619c-1.281-0.503-5.157-1.774-7.591,0.142c-3.335,2.627-8.438,0.437-9.837-0.247
				c-0.053,0.352-0.068,0.609-0.071,0.725c-0.005,0.193-0.01,1.399-0.01,1.602c-0.111-0.034-0.225-0.053-0.34-0.043
				c-0.799,0.082-1.343,1.295-1.216,2.711s0.876,2.499,1.674,2.419c0.1-0.01,0.195-0.038,0.286-0.082
				c0.696,2.739,2.167,5.024,4.077,6.414c1.275,0.928,2.747,1.458,4.315,1.458c1.565,0,3.036-0.527,4.31-1.453
				c1.913-1.39,3.387-3.676,4.083-6.419c0.091,0.044,0.187,0.072,0.287,0.082c0.798,0.08,1.548-1.003,1.674-2.419
				S74.094,103.135,73.296,103.053z"/>
			<path fill="#8DDEF1" d="M65.28,101.017c2.434-1.916,6.31-0.645,7.591-0.142c-0.258-1.84-1.604-6.813-8.704-6.813
				c-6.987,0-8.432,4.78-8.724,6.707C56.841,101.454,61.945,103.644,65.28,101.017z"/>
			<path fill="#8DDEF1" d="M64.177,128.677c-7.894-9.684-20.448-7.651-20.448-7.651v14.091h40.895v-14.091
				C84.624,121.026,72.071,118.994,64.177,128.677z"/>
			<g>
				<polygon fill="#769AFF" points="40.186,138.263 62.311,141.688 62.311,128.688 40.186,124.332 				"/>
				<polygon fill="#769AFF" points="66.061,128.688 66.061,141.688 88.186,138.263 88.186,124.332 				"/>
			</g>
			<rect x="62.311" y="128.688" fill="#7A8E9B" width="3.75" height="1.192"/>
			<path fill="#556DD3" d="M62.311,128.688v13c1.036,0.5,2.713,0.5,3.75,0v-13C65.024,129.188,63.347,129.188,62.311,128.688z"/>
		</g>
		<g>
			<path fill="#8DDEF1" d="M206.375,123.037c-0.414,0-0.75-0.337-0.75-0.75V99.688c0-2.067-1.682-3.749-3.75-3.749
				c-0.993,0-1.928,0.384-2.634,1.081c-0.295,0.291-0.77,0.288-1.061-0.006c-0.292-0.295-0.289-0.77,0.006-1.061
				c0.988-0.978,2.298-1.515,3.688-1.515c2.895,0,5.25,2.354,5.25,5.249v22.599C207.125,122.7,206.79,123.037,206.375,123.037z"/>
			<path fill="#556DD3" d="M198.723,96.496c-1.504-1.505-3.709-1.884-5.567-1.139l6.705,6.706
				C200.607,100.205,200.229,98,198.723,96.496z"/>
			<path fill="#769AFF" d="M193.156,95.357c-0.626,0.252-1.214,0.631-1.722,1.139l7.289,7.289c0.508-0.508,0.886-1.095,1.138-1.722
				L193.156,95.357z"/>
			<path fill="#8DDEF1" d="M180.201,119.616v16.66c0,1.201,0.979,2.181,2.182,2.181s2.182-0.979,2.182-2.181v-14.235
				c0-0.448,0.363-0.812,0.812-0.812s0.812,0.363,0.812,0.812v14.235c0,1.201,0.979,2.181,2.182,2.181
				c1.203,0,2.182-0.979,2.182-2.181v-16.66H180.201z"/>
			<path fill="#8DDEF1" d="M191.378,109.979h-3.331l-2.672,2.671l-2.671-2.671h-3.332c-2.152,0-3.904,1.751-3.904,3.902v13.01
				c0,0.853,0.693,1.545,1.546,1.545c0.852,0,1.545-0.692,1.545-1.545v-12.19c0-0.45,0.364-0.813,0.813-0.813
				s0.813,0.363,0.814,0.813l0,0v12.92h10.378v-12.92l0,0c0-0.45,0.364-0.813,0.813-0.813c0.001,0,0.003,0,0.004,0s0.003,0,0.004,0
				c0.449,0,0.813,0.363,0.813,0.813v12.276c0.046,0.812,0.714,1.459,1.537,1.459c0.852,0,1.545-0.692,1.545-1.545v-13.01
				C195.283,111.73,193.531,109.979,191.378,109.979z"/>
			<path fill="#F8B55B" d="M181.415,103.19c-0.138,0.409-0.215,0.864-0.215,1.366c0,2.525,1.883,4.572,4.207,4.572
				c2.323,0,4.206-2.047,4.206-4.572c0-0.06-0.006-0.115-0.008-0.174c-0.466-0.053-1.05-0.225-1.784-0.562
				C185.103,102.572,182.83,102.795,181.415,103.19z"/>
			<path fill="#769AFF" d="M185.407,100.649c-1.861,0-3.438,0.89-3.992,2.541c1.415-0.395,3.688-0.618,6.406,0.631
				c0.733,0.337,1.318,0.509,1.784,0.562C189.519,101.969,187.675,100.649,185.407,100.649z"/>
			<g>
				<polygon fill="#769AFF" points="188.047,109.979 185.375,112.65 186.712,113.987 190.719,109.979 				"/>
				<polygon fill="#769AFF" points="180.032,109.979 184.04,113.987 185.375,112.65 182.704,109.979 				"/>
			</g>
			<path fill="#556DD3" d="M163.625,122.287v5.25c0,0.828,0.672,1.5,1.5,1.5h40.5c0.829,0,1.5-0.672,1.5-1.5v-5.25H163.625z"/>
			<g>
				<rect x="176.091" y="129.037" fill="#769AFF" width="1.5" height="7.88"/>
				<rect x="193.008" y="129.037" fill="#769AFF" width="1.5" height="7.88"/>
				<rect x="165.5" y="129.037" fill="#769AFF" width="2.25" height="12.65"/>
				<rect x="203" y="129.037" fill="#769AFF" width="2.25" height="12.65"/>
			</g>
			<rect x="161.375" y="121.537" fill="#769AFF" width="48" height="1.5"/>
			<g>
				<path fill="#769AFF" d="M172.715,114.208c-0.321-0.696-0.321-1.497,0-2.193h-7.536v2.193H172.715z"/>
				<path fill="#769AFF" d="M171.619,115.304h-9.729v2.192h9.729C171.298,116.801,171.298,116,171.619,115.304z"/>
				<path fill="#769AFF" d="M173.812,118.593h-10.826l0,2.192h10.825C173.49,120.089,173.49,119.29,173.812,118.593z"/>
			</g>
			<g>
				<path fill="#556DD3" d="M165.041,114.583h7.914v-0.75h-7.42c-0.159-0.469-0.159-0.975,0-1.443h7.421v-0.75h-7.914l-0.101,0.219
					c-0.367,0.797-0.367,1.709,0,2.506L165.041,114.583z"/>
				<path fill="#556DD3" d="M171.859,117.122h-9.613c-0.16-0.467-0.16-0.974,0-1.442h9.613v-0.75h-10.107l-0.101,0.218
					c-0.367,0.797-0.367,1.711,0,2.507l0.101,0.218h10.107V117.122z"/>
				<path fill="#556DD3" d="M174.051,118.968v-0.75h-11.204l-0.1,0.218c-0.367,0.797-0.367,1.711,0,2.507l0.101,0.218h11.203v-0.75
					h-10.71c-0.159-0.468-0.159-0.975,0-1.442H174.051z"/>
			</g>
		</g>
		<g>
			<path fill="#556DD3" d="M292.753,98.199l1.396-0.798c-1.23-1.641-2.503-3.338-2.503-3.338l-2.503,3.338l1.396,0.798H292.753z"/>
			<path fill="#F8B55B" d="M294.149,97.401l-1.396,0.798h-2.215l-1.396-0.798l-1.927,2.57v27.321h8.861V99.971
				C296.076,99.971,295.096,98.665,294.149,97.401z"/>
			<path fill="#8DDEF1" d="M309.788,98.236v-4.173h-6.533v38.399h6.533v-4.173c8.299,0,15.026-6.728,15.026-15.026
				C324.814,104.963,318.087,98.236,309.788,98.236z M309.788,122.832v-19.138c5.285,0,9.568,4.284,9.568,9.569
				C319.356,118.547,315.072,122.832,309.788,122.832z"/>
			<g>
				<rect x="303.254" y="98.81" fill="#769AFF" width="2.881" height="1.478"/>
				<rect x="303.254" y="104.295" fill="#769AFF" width="2.881" height="1.477"/>
				<rect x="303.254" y="109.782" fill="#769AFF" width="2.881" height="1.477"/>
				<rect x="303.254" y="115.267" fill="#769AFF" width="2.881" height="1.477"/>
				<rect x="303.254" y="120.753" fill="#769AFF" width="2.881" height="1.477"/>
				<rect x="303.254" y="126.238" fill="#769AFF" width="2.881" height="1.478"/>
			</g>
			<rect x="287.215" y="127.292" fill="#F8B55B" width="8.861" height="4.431"/>
			<polygon fill="#556DD3" points="289.799,101.448 287.215,99.971 287.215,127.292 291.646,127.292 291.646,101.448 			"/>
			<polygon fill="#769AFF" points="293.492,101.448 291.646,101.448 291.646,127.292 296.076,127.292 296.076,99.971 			"/>
			<path fill="#8DDEF1" d="M283.606,132.462c-1.427,0-2.584,1.156-2.584,2.585v3.692c0,1.428,1.157,2.584,2.584,2.584h39.507v-8.861
				H283.606z"/>
			<path fill="#769AFF" d="M327.544,132.461l-43.912,0.002c1.182,2.448,1.182,6.411,0,8.86h43.912
				C325.095,138.875,325.095,134.912,327.544,132.461z"/>
			<path fill="#556DD3" d="M328.283,142.063h-44.677c-1.833,0-3.323-1.49-3.323-3.323v-3.692c0-1.833,1.491-3.324,3.323-3.324
				h44.677v1.478h-44.677c-1.018,0-1.846,0.828-1.846,1.847v3.692c0,1.019,0.829,1.846,1.846,1.846h44.677V142.063z"/>
			<g>
				<path fill="#8DDEF1" d="M323.491,137.817h-27.144c-0.204,0-0.369,0.164-0.369,0.369c0,0.204,0.166,0.369,0.369,0.369h27.144
					c0.205,0,0.37-0.165,0.37-0.369C323.861,137.981,323.696,137.817,323.491,137.817z"/>
				<path fill="#8DDEF1" d="M312.135,135.601c0-0.204-0.166-0.369-0.369-0.369h-25.054c-0.204,0-0.37,0.165-0.37,0.369
					s0.166,0.369,0.37,0.369h25.054C311.97,135.97,312.135,135.805,312.135,135.601z"/>
			</g>
		</g>
		<g>
			<path fill="#8DDEF1" d="M448.945,130.812h-48V96.313c0-1.243,1.007-2.25,2.25-2.25h43.5c1.243,0,2.25,1.007,2.25,2.25V130.812z"
				/>
			<polygon fill="#769AFF" points="432.445,140.562 424.945,140.562 417.445,140.562 419.695,136.062 424.945,136.062 
				430.195,136.062 			"/>
			<g>
				<rect x="411.445" y="140.563" fill="#556DD3" width="27" height="1.5"/>
				<path fill="#556DD3" d="M400.945,130.812v3c0,1.244,1.007,2.25,2.25,2.25h43.5c1.243,0,2.25-1.006,2.25-2.25v-3H400.945z"/>
			</g>
			<g>
				<rect x="406.039" y="104.421" fill="#556DD3" width="8.75" height="1.5"/>
				<rect x="406.039" y="109.672" fill="#556DD3" width="4.25" height="1.5"/>
				<rect x="413.54" y="109.672" fill="#556DD3" width="5.75" height="1.5"/>
				<rect x="418.79" y="114.923" fill="#556DD3" width="6.5" height="1.5"/>
				<rect x="406.039" y="114.923" fill="#556DD3" width="9.5" height="1.5"/>
				<rect x="406.039" y="120.173" fill="#556DD3" width="5" height="1.5"/>
				<rect x="414.29" y="120.173" fill="#556DD3" width="11" height="1.5"/>
				<rect x="406.039" y="125.424" fill="#556DD3" width="14" height="1.5"/>
			</g>
			<path fill="#769AFF" d="M441.293,110.521h-3.952l-2.37,2.369l-2.369-2.369h-2.37c-0.976,0-1.096-0.349-1.771-1.023l-9.047-9.049
				c-0.68-0.68-1.782-0.68-2.462,0s-0.68,1.781,0,2.461l11.69,11.73c0.56,0.563,0.861,1.242,0.861,2.036l0.003,12.423h10.93v-13.606
				l0,0c0-0.473,0.384-0.856,0.856-0.856c0.002,0,0.003,0.001,0.005,0.001c0.001,0,0.003-0.001,0.004-0.001
				c0.473,0,0.857,0.384,0.857,0.856v12.93c0.048,0.854,0.751,1.536,1.618,1.536c0.897,0,1.627-0.729,1.627-1.627v-13.7
				C445.405,112.365,443.561,110.521,441.293,110.521z"/>
			<rect x="429.509" y="129.099" fill="#F8B55B" width="10.926" height="1.713"/>
			<path fill="#F8B55B" d="M430.801,103.372c-0.145,0.432-0.226,0.91-0.226,1.439c0,2.659,1.982,4.814,4.43,4.814
				c2.446,0,4.43-2.155,4.43-4.814c0-0.063-0.007-0.123-0.009-0.185c-0.491-0.056-1.106-0.235-1.878-0.591
				C434.686,102.721,432.291,102.957,430.801,103.372z"/>
			<path fill="#556DD3" d="M435.005,100.695c-1.96,0-3.621,0.938-4.204,2.677c1.49-0.415,3.885-0.65,6.747,0.664
				c0.772,0.355,1.387,0.535,1.878,0.591C439.335,102.086,437.393,100.695,435.005,100.695z"/>
			<g>
				<polygon fill="#556DD3" points="437.341,110.521 434.972,112.89 436.157,114.075 439.71,110.521 				"/>
				<polygon fill="#556DD3" points="430.233,110.521 433.788,114.075 434.972,112.89 432.603,110.521 				"/>
			</g>
			<polygon fill="#F8B55B" points="434.972,112.89 433.788,114.075 433.788,124.739 434.972,125.923 436.157,124.739 
				436.157,114.075 			"/>
			<circle fill="#8DDEF1" cx="424.945" cy="133.484" r="1.125"/>
		</g>
		<g>
			<path fill="#556DD3" d="M564.332,105.247L564.332,105.247h-38.108c-2.85,0-5.161-2.311-5.161-5.161v-0.861l0,0v37.678
				c0,2.851,2.311,5.16,5.161,5.16h38.108V105.247L564.332,105.247z"/>
			<path fill="#556DD3" d="M526.224,95.769h37.202c0.224-0.548,0.48-1.11,0.798-1.706h-0.095h-37.904
				c-2.85,0-5.161,2.311-5.161,5.161v0.861c0,0.145,0.031,0.28,0.042,0.422C521.324,97.858,523.518,95.769,526.224,95.769z"/>
			<path fill="#8DDEF1" d="M564.332,105.247c-0.974-1.828-1.512-3.386-1.663-4.898c-0.149-1.497,0.094-2.958,0.756-4.579h-37.202
				c-2.706,0-4.9,2.089-5.118,4.738c0.218,2.65,2.413,4.739,5.118,4.739h37.298H564.332L564.332,105.247z"/>
			<rect x="526.261" y="105.248" fill="#769AFF" width="38.071" height="36.815"/>
			<g>
				<rect x="525.86" y="97.781" fill="#769AFF" width="34.619" height="1.5"/>
				<rect x="525.86" y="101.7" fill="#769AFF" width="32.381" height="1.5"/>
			</g>
			<g>
				<rect x="528.177" y="105.248" fill="#556DD3" width="1.5" height="0.75"/>
				<rect x="528.177" y="132.1" fill="#556DD3" width="1.5" height="1.535"/>
				<rect x="528.177" y="125.958" fill="#556DD3" width="1.5" height="1.535"/>
				<rect x="528.177" y="129.029" fill="#556DD3" width="1.5" height="1.536"/>
				<rect x="528.177" y="135.17" fill="#556DD3" width="1.5" height="1.536"/>
				<rect x="528.177" y="138.242" fill="#556DD3" width="1.5" height="1.535"/>
				<rect x="528.177" y="122.887" fill="#556DD3" width="1.5" height="1.535"/>
				<rect x="528.177" y="110.603" fill="#556DD3" width="1.5" height="1.535"/>
				<rect x="528.177" y="107.533" fill="#556DD3" width="1.5" height="1.535"/>
				<rect x="528.177" y="116.746" fill="#556DD3" width="1.5" height="1.535"/>
				<rect x="528.177" y="113.674" fill="#556DD3" width="1.5" height="1.536"/>
				<rect x="528.177" y="119.816" fill="#556DD3" width="1.5" height="1.536"/>
				<rect x="528.177" y="141.312" fill="#556DD3" width="1.5" height="0.75"/>
			</g>
			<path fill="#8DDEF1" d="M557.507,108.997h-20.913c-0.852,0-1.543,0.691-1.543,1.544v23.163c0,0.853,0.691,1.543,1.543,1.543
				h20.913c0.853,0,1.544-0.69,1.544-1.543v-23.163C559.051,109.688,558.36,108.997,557.507,108.997z"/>
			<g>
				<path fill="#F8B55B" d="M542.219,137.91h-3.75c-0.415,0-0.75,0.335-0.75,0.75c0,0.414,0.335,0.75,0.75,0.75h3.75
					c0.415,0,0.75-0.336,0.75-0.75C542.969,138.245,542.633,137.91,542.219,137.91z"/>
				<path fill="#F8B55B" d="M554.968,137.91h-3.75c-0.415,0-0.75,0.335-0.75,0.75c0,0.414,0.335,0.75,0.75,0.75h3.75
					c0.415,0,0.75-0.336,0.75-0.75C555.718,138.245,555.383,137.91,554.968,137.91z"/>
				<circle fill="#F8B55B" cx="546.718" cy="138.66" r="1.688"/>
			</g>
			<g>
				<rect x="538.801" y="112.372" fill="#556DD3" width="4.157" height="1.5"/>
				<rect x="545.208" y="112.372" fill="#556DD3" width="10.093" height="1.5"/>
				<rect x="538.801" y="116.872" fill="#556DD3" width="7.917" height="1.5"/>
				<rect x="548.969" y="116.872" fill="#556DD3" width="4.201" height="1.5"/>
				<rect x="538.801" y="121.372" fill="#556DD3" width="4.378" height="1.5"/>
				<rect x="545.43" y="121.372" fill="#556DD3" width="9.872" height="1.5"/>
				<rect x="538.801" y="125.872" fill="#556DD3" width="9.75" height="1.5"/>
				<rect x="550.803" y="125.872" fill="#556DD3" width="4.499" height="1.5"/>
				<rect x="538.801" y="130.372" fill="#556DD3" width="6.986" height="1.5"/>
			</g>
			<g>
				<path fill="#F8B55B" d="M563.338,111.762c-0.829,0-1.5,0.671-1.5,1.5v5.719c0,0.828,0.671,1.5,1.5,1.5h0.993v-8.719H563.338z"/>
				<path fill="#F8B55B" d="M561.838,125.263v5.719c0,0.828,0.671,1.5,1.5,1.5h0.993v-8.719h-0.993
					C562.509,123.763,561.838,124.434,561.838,125.263z"/>
			</g>
		</g>
		<g>
			<path fill="#769AFF" d="M85.313,196.723H43.058c-1.586,0-2.873,1.286-2.873,2.872v37.755c0,1.587,1.286,2.873,2.873,2.873h42.255
				c1.587,0,2.873-1.286,2.873-2.873v-37.755C88.186,198.009,86.9,196.723,85.313,196.723z"/>
			<path fill="#8DDEF1" d="M48.811,235.348c0-2.071-1.679-3.75-3.75-3.75v-26.25c2.071,0,3.75-1.679,3.75-3.75h30.75
				c0,2.071,1.679,3.75,3.75,3.75v26.25c-2.071,0-3.75,1.679-3.75,3.75H48.811z"/>
			<polygon fill="#F8B55B" points="75.436,244.724 71.311,242.81 67.186,244.724 67.186,231.722 75.436,231.722 			"/>
			<circle fill="#556DD3" cx="71.311" cy="229.934" r="6.75"/>
			<circle fill="#F8B55B" cx="71.311" cy="229.934" r="3.563"/>
			<g>
				<rect x="58.491" y="206.966" fill="#556DD3" width="11.39" height="1.5"/>
				<rect x="62.645" y="212.21" fill="#556DD3" width="15.416" height="1.5"/>
				<rect x="50.311" y="212.21" fill="#556DD3" width="7.93" height="1.5"/>
				<rect x="70.394" y="217.455" fill="#556DD3" width="7.667" height="1.5"/>
				<rect x="50.311" y="217.455" fill="#556DD3" width="15.68" height="1.5"/>
				<rect x="50.311" y="222.699" fill="#556DD3" width="9.99" height="1.5"/>
				<path fill="#556DD3" d="M54.305,228.148c-0.961,0.717-2.585,0.718-3.546,0l-0.897,1.203c0.748,0.558,1.709,0.838,2.669,0.838
					c0.961,0,1.921-0.28,2.669-0.838c0.961-0.717,2.585-0.717,3.545,0l0.897-1.203C58.147,227.032,55.801,227.032,54.305,228.148z"
					/>
			</g>
		</g>
		<g>
			<g>
				<rect x="194.375" y="217.723" fill="#556DD3" width="12.75" height="20.25"/>
				<rect x="163.625" y="217.723" fill="#556DD3" width="12.75" height="20.25"/>
			</g>
			<polygon fill="#F8B55B" points="209.375,217.723 161.375,217.723 169.626,207.223 185.376,207.223 201.125,207.223 			"/>
			<rect x="176.375" y="213.223" fill="#769AFF" width="18" height="24.75"/>
			<polygon fill="#8DDEF1" points="173.375,213.223 197.375,213.223 185.375,202.723 			"/>
			<g>
				<path fill="#FFFFFF" d="M167.21,220.774c-0.172,0.173-0.27,0.413-0.27,0.668c0,0.239,0.098,0.486,0.27,0.659
					c0.18,0.173,0.42,0.27,0.667,0.27c0.24,0,0.488-0.097,0.66-0.27c0.172-0.18,0.277-0.42,0.277-0.659
					c0-0.248-0.105-0.495-0.277-0.668C168.185,220.421,167.555,220.428,167.21,220.774z"/>
				<circle fill="#FFFFFF" cx="167.877" cy="225.626" r="0.938"/>
				<circle fill="#FFFFFF" cx="167.877" cy="229.812" r="0.938"/>
				<path fill="#FFFFFF" d="M167.21,233.336c-0.172,0.181-0.27,0.42-0.27,0.668c0,0.239,0.098,0.486,0.27,0.659
					c0.18,0.173,0.42,0.27,0.667,0.27c0.248,0,0.488-0.097,0.66-0.27s0.277-0.42,0.277-0.659c0-0.248-0.105-0.487-0.277-0.668
					C168.193,232.991,167.563,232.984,167.21,233.336z"/>
				<path fill="#FFFFFF" d="M172.123,222.371c0.248,0,0.488-0.097,0.667-0.27c0.172-0.18,0.27-0.42,0.27-0.659
					c0-0.248-0.098-0.495-0.27-0.668c-0.352-0.353-0.975-0.346-1.328,0c-0.172,0.173-0.277,0.42-0.277,0.668
					c0,0.239,0.105,0.479,0.277,0.659C171.635,222.274,171.882,222.371,172.123,222.371z"/>
				<circle fill="#FFFFFF" cx="172.123" cy="225.626" r="0.938"/>
				<circle fill="#FFFFFF" cx="172.123" cy="229.812" r="0.938"/>
				<path fill="#FFFFFF" d="M171.462,233.336c-0.172,0.181-0.277,0.42-0.277,0.668c0,0.239,0.105,0.486,0.277,0.659
					c0.173,0.173,0.413,0.27,0.66,0.27c0.248,0,0.488-0.097,0.667-0.27c0.172-0.173,0.27-0.42,0.27-0.659
					c0-0.248-0.098-0.487-0.27-0.668C172.438,232.984,171.808,232.991,171.462,233.336z"/>
			</g>
			<g>
				<path fill="#FFFFFF" d="M197.96,220.774c-0.172,0.173-0.27,0.42-0.27,0.668c0,0.239,0.098,0.486,0.27,0.659
					c0.18,0.173,0.42,0.278,0.667,0.278c0.248,0,0.488-0.105,0.66-0.278s0.277-0.42,0.277-0.659c0-0.248-0.105-0.495-0.277-0.668
					C198.943,220.428,198.32,220.421,197.96,220.774z"/>
				<circle fill="#FFFFFF" cx="198.627" cy="229.812" r="0.938"/>
				<circle fill="#FFFFFF" cx="198.627" cy="225.626" r="0.938"/>
				<path fill="#FFFFFF" d="M197.96,233.336c-0.172,0.173-0.27,0.413-0.27,0.659c0,0.248,0.098,0.495,0.27,0.668
					c0.18,0.173,0.42,0.27,0.667,0.27c0.248,0,0.488-0.097,0.66-0.27s0.277-0.42,0.277-0.668c0-0.246-0.105-0.486-0.277-0.659
					C198.943,232.991,198.32,232.984,197.96,233.336z"/>
				<path fill="#FFFFFF" d="M202.873,222.379c0.248,0,0.488-0.105,0.667-0.278c0.172-0.173,0.27-0.42,0.27-0.659
					c0-0.248-0.098-0.495-0.27-0.668c-0.352-0.353-0.982-0.346-1.328,0c-0.172,0.173-0.277,0.42-0.277,0.668
					c0,0.239,0.105,0.486,0.277,0.659C202.385,222.274,202.625,222.379,202.873,222.379z"/>
				<circle fill="#FFFFFF" cx="202.873" cy="225.626" r="0.938"/>
				<circle fill="#FFFFFF" cx="202.873" cy="229.812" r="0.938"/>
				<path fill="#FFFFFF" d="M202.212,233.336c-0.172,0.173-0.277,0.42-0.277,0.668c0,0.239,0.105,0.479,0.277,0.659
					c0.173,0.173,0.413,0.278,0.66,0.278c0.248,0,0.488-0.105,0.667-0.278c0.172-0.18,0.27-0.42,0.27-0.659
					c0-0.248-0.098-0.495-0.27-0.668C203.188,232.984,202.558,232.991,202.212,233.336z"/>
			</g>
			<g>
				<path fill="#FFFFFF" d="M180.215,216.056c-0.18,0.173-0.277,0.413-0.277,0.66c0,0.248,0.097,0.488,0.277,0.668
					c0.172,0.172,0.413,0.27,0.661,0.27c0.247,0,0.487-0.098,0.66-0.27c0.18-0.18,0.278-0.42,0.278-0.668
					c0-0.247-0.098-0.487-0.278-0.66C181.19,215.711,180.56,215.705,180.215,216.056z"/>
				<circle fill="#FFFFFF" cx="180.875" cy="220.969" r="0.938"/>
				<circle fill="#FFFFFF" cx="180.875" cy="225.221" r="0.938"/>
				<path fill="#FFFFFF" d="M180.208,228.806c-0.172,0.173-0.27,0.42-0.27,0.66c0,0.248,0.097,0.488,0.277,0.668
					c0.172,0.172,0.413,0.27,0.661,0.27c0.247,0,0.487-0.098,0.66-0.27c0.18-0.18,0.278-0.42,0.278-0.668
					c0-0.24-0.098-0.487-0.278-0.66C181.19,228.455,180.568,228.455,180.208,228.806z"/>
				<path fill="#FFFFFF" d="M184.715,216.056c-0.18,0.173-0.277,0.413-0.277,0.66c0,0.255,0.104,0.495,0.277,0.668
					c0.172,0.172,0.413,0.27,0.661,0.27c0.247,0,0.487-0.098,0.66-0.27c0.18-0.173,0.278-0.42,0.278-0.668
					c0-0.247-0.098-0.487-0.278-0.66C185.69,215.705,185.06,215.705,184.715,216.056z"/>
				<circle fill="#FFFFFF" cx="185.375" cy="225.221" r="0.938"/>
				<circle fill="#FFFFFF" cx="185.375" cy="220.969" r="0.938"/>
				<path fill="#FFFFFF" d="M184.715,228.806c-0.18,0.173-0.277,0.42-0.277,0.66c0,0.248,0.097,0.488,0.277,0.668
					c0.172,0.172,0.413,0.27,0.661,0.27c0.247,0,0.487-0.098,0.66-0.27c0.18-0.18,0.278-0.42,0.278-0.668
					c0-0.24-0.098-0.487-0.278-0.66C185.69,228.455,185.068,228.455,184.715,228.806z"/>
				<path fill="#FFFFFF" d="M189.875,217.654c0.247,0,0.487-0.098,0.66-0.27c0.18-0.18,0.278-0.42,0.278-0.668
					c0-0.247-0.098-0.487-0.278-0.66c-0.345-0.345-0.967-0.352-1.32,0c-0.18,0.173-0.277,0.413-0.277,0.66
					c0,0.248,0.097,0.488,0.277,0.668C189.387,217.556,189.627,217.654,189.875,217.654z"/>
				<circle fill="#FFFFFF" cx="189.875" cy="220.969" r="0.938"/>
				<circle fill="#FFFFFF" cx="189.875" cy="225.221" r="0.938"/>
				<path fill="#FFFFFF" d="M189.215,228.806c-0.18,0.173-0.277,0.413-0.277,0.66c0,0.248,0.097,0.488,0.277,0.668
					c0.172,0.172,0.413,0.27,0.661,0.27c0.247,0,0.487-0.098,0.66-0.27c0.18-0.173,0.278-0.42,0.278-0.668
					c0-0.247-0.098-0.487-0.278-0.66C190.19,228.461,189.568,228.455,189.215,228.806z"/>
			</g>
			<rect x="180.876" y="233.473" fill="#8DDEF1" width="9" height="4.5"/>
			<rect x="161.375" y="237.223" fill="#F8B55B" width="48" height="1.5"/>
			<rect x="180.125" y="232.723" fill="#556DD3" width="10.5" height="1.5"/>
		</g>
		<g>
			<path fill="#556DD3" d="M317.768,197.327l-0.527-0.526l-4.762,4.761l1.054,1.055l3.699-3.7
				c8.061,8.619,7.888,22.189-0.518,30.596c-4.157,4.158-9.686,6.447-15.565,6.447c-5.631,0-10.939-2.1-15.03-5.93l3.699-3.698
				l-1.053-1.054l-4.762,4.761l0.526,0.527c4.263,4.263,9.876,6.68,15.875,6.866v4.984h1.49v-4.984
				c5.998-0.187,11.611-2.604,15.874-6.866C326.931,221.401,326.931,206.491,317.768,197.327z"/>
			<rect x="285.763" y="242.416" fill="#556DD3" width="30.77" height="2.308"/>
			<rect x="289.609" y="240.107" fill="#769AFF" width="23.077" height="2.309"/>
			<path fill="#769AFF" d="M307.477,221.662c0.966-0.967,2.533-0.967,3.499,0l-3.817-3.817c-0.966-0.967-0.966-2.533,0-3.499
				c0.966-0.967,2.533-0.966,3.499,0l6.343,6.343c0.882-2.07,1.371-4.35,1.371-6.742c0-9.512-7.711-17.223-17.223-17.223
				c-0.358,0-0.713,0.015-1.066,0.036l3.366,3.365c0.966,0.967,0.966,2.533,0,3.499c-0.967,0.967-2.533,0.967-3.5,0l2.545,2.546
				c0.966,0.966,0.966,2.532,0,3.498c-0.967,0.967-2.533,0.967-3.499,0l-5.09-5.09c0.966,0.967,0.966,2.532,0,3.499
				c-0.966,0.967-2.533,0.967-3.499,0l7.951,7.977c0.966,0.967,0.966,2.532,0,3.499c-0.966,0.966-2.533,0.966-3.499,0
				l-10.284-10.284c-0.419,1.488-0.648,3.056-0.648,4.678c0,8.917,6.777,16.252,15.461,17.134l-2.096-2.097
				c-0.966-0.966-0.966-2.532,0-3.498c0.966-0.967,2.533-0.967,3.5,0l5.036,5.035c1.729-0.486,3.346-1.234,4.809-2.202l-3.158-3.158
				C306.51,224.195,306.51,222.627,307.477,221.662z"/>
			<g>
				<path fill="#8DDEF1" d="M298.357,219.552c0.966-0.967,0.966-2.532,0-3.499l-7.951-7.977c0.966,0.967,2.533,0.967,3.499,0
					c0.966-0.967,0.966-2.532,0-3.499l5.09,5.09c0.966,0.967,2.532,0.967,3.499,0c0.966-0.966,0.966-2.532,0-3.499l-2.545-2.545
					c0.966,0.967,2.533,0.967,3.5,0c0.966-0.966,0.966-2.532,0-3.499l-3.366-3.365c-7.417,0.454-13.562,5.601-15.508,12.509
					l10.284,10.284C295.824,220.518,297.391,220.518,298.357,219.552z"/>
				<path fill="#8DDEF1" d="M310.657,214.345c-0.966-0.966-2.533-0.967-3.499,0c-0.966,0.966-0.966,2.532,0,3.499l3.817,3.817
					c-0.966-0.967-2.533-0.967-3.499,0c-0.967,0.966-0.967,2.533,0,3.498l3.158,3.158c2.803-1.854,5.033-4.503,6.365-7.63
					L310.657,214.345z"/>
				<path fill="#8DDEF1" d="M297.291,225.485c-0.966,0.966-0.966,2.532,0,3.498l2.096,2.097c0.579,0.059,1.167,0.089,1.761,0.089
					c1.622,0,3.189-0.229,4.678-0.648l-5.036-5.035C299.824,224.518,298.257,224.518,297.291,225.485z"/>
			</g>
		</g>
		<g>
			<path fill="#556DD3" d="M403.53,222.889h-0.239c-1.291,0-2.347,1.057-2.347,2.347v9.165c0,1.291,1.056,2.347,2.347,2.347h0.239
				c1.291,0,2.347-1.056,2.347-2.347v-9.165C405.877,223.946,404.821,222.889,403.53,222.889z"/>
			<circle fill="#FFFFFF" cx="403.411" cy="234.206" r="0.985"/>
			<path fill="#769AFF" d="M437.355,231.296c-0.851,0.44-1.732,0.897-2.64,1.359c-0.001,0-0.002,0-0.003,0
				c-0.004,0.003-0.007,0.007-0.011,0.009c-2.18,1.053-4.504,1.578-7.087,1.578c-1.995,0-4.144-0.313-6.499-0.936
				c-0.449-0.12-0.718-0.58-0.599-1.029c0.119-0.45,0.583-0.715,1.03-0.599c4.986,1.319,8.93,1.151,12.404-0.523h0.001
				c1.534-0.788,1.569-1.077,1.638-1.652c0.115-0.951-0.037-1.658-0.45-2.103c-0.617-0.66-1.688-0.615-1.701-0.616
				c-8.079,0.141-9.555-0.726-11.258-1.726c-1.54-0.904-3.286-1.929-12.76-2.098c-0.012,0-0.024,0-0.037,0
				c-0.516,0-1.002,0.199-1.373,0.563c-0.381,0.374-0.59,0.873-0.59,1.406v10.292c0,0.792,0.438,1.499,1.147,1.844
				c4.699,2.29,19.005,9.263,39.148-6.224c0.023-0.018,0.047-0.035,0.073-0.05c0.168-0.105,1.657-1.087,0.984-2.303
				C447.494,226.182,443.602,228.054,437.355,231.296z"/>
			<path fill="#8DDEF1" d="M411.304,207.933v8.388c0,2.621,6.107,4.745,13.641,4.745s13.641-2.124,13.641-4.745v-8.388H411.304z"/>
			<path fill="#769AFF" d="M411.304,205.953v5.868c0,2.62,6.107,4.744,13.641,4.744s13.641-2.124,13.641-4.744v-5.868H411.304z"/>
			<polygon fill="#8DDEF1" points="424.945,200.823 400.945,206.837 424.945,212.852 448.945,206.837 			"/>
			<circle fill="#769AFF" cx="431.013" cy="221.816" r="2.681"/>
			<path fill="#F8B55B" d="M431.764,218.472v-5.712c0-1.109-0.458-2.188-1.255-2.961l-5.042-4.884
				c-0.296-0.287-0.772-0.281-1.061,0.018c-0.288,0.298-0.28,0.772,0.018,1.061l5.042,4.883c0.508,0.491,0.798,1.178,0.798,1.884
				v5.712c-1.531,0.344-2.681,1.71-2.681,3.344c0,1.892,1.54,3.431,3.431,3.431c1.892,0,3.431-1.539,3.431-3.431
				C434.444,220.182,433.295,218.816,431.764,218.472z M431.014,223.747c-1.065,0-1.931-0.866-1.931-1.931
				c0-1.065,0.866-1.933,1.931-1.933c1.064,0,1.931,0.867,1.931,1.933C432.944,222.88,432.078,223.747,431.014,223.747z"/>
		</g>
		<g>
			<path fill="#556DD3" d="M564.375,210.957c0.2-0.353,0.315-0.759,0.315-1.193c0-1.342-1.087-2.431-2.429-2.431
				c-0.628,0-1.199,0.242-1.63,0.633c-0.278-2.149-2.112-3.812-4.337-3.812c-2.418,0-4.379,1.96-4.379,4.379
				c0,0.275,0.029,0.544,0.077,0.806c-0.245-0.053-0.498-0.082-0.757-0.082c-2.038,0-3.689,1.651-3.689,3.688
				s1.652,3.689,3.689,3.689c1.286,0,11.708,0,12.598,0c1.583,0,2.866-1.283,2.866-2.866
				C566.697,212.372,565.697,211.211,564.375,210.957z"/>
			<path fill="#769AFF" d="M540.417,216.168c-0.243-0.431-0.384-0.926-0.384-1.454c0-1.634,1.324-2.956,2.957-2.956
				c0.765,0,1.459,0.293,1.984,0.769c0.339-2.616,2.571-4.638,5.278-4.638c2.944,0,5.329,2.385,5.329,5.328
				c0,0.335-0.034,0.662-0.094,0.979c0.297-0.063,0.605-0.1,0.922-0.1c2.479,0,4.489,2.01,4.489,4.49
				c0,2.479-2.01,4.489-4.489,4.489c-1.565,0-14.25,0-15.332,0c-1.926,0-3.488-1.563-3.488-3.489
				C537.59,217.888,538.807,216.477,540.417,216.168z"/>
			<polygon fill="#8DDEF1" points="549.364,215.154 544.916,219.247 547.073,219.247 547.073,231.938 551.592,231.938 
				551.594,219.247 553.813,219.247 			"/>
			<path fill="#556DD3" d="M542.697,232.135c0,0-3.75-10.356-16.884-7.263l-1.969,5.179L542.697,232.135z"/>
			<path fill="#769AFF" d="M563.112,230.635c0,0-13.969-6-20.415,1.5c-6.446-7.5-20.415-1.5-20.415-1.5l-1.688,3.657h44.205
				L563.112,230.635z"/>
			<path fill="#8DDEF1" d="M538.948,234.292c1.485-0.8,6.015-0.8,7.5,0h0c0,1.243-1.007,2.25-2.25,2.25h-3
				C539.955,236.542,538.947,235.536,538.948,234.292L538.948,234.292z"/>
			<path fill="#F8B55B" d="M544.197,237.292h-3c-1.396,0-2.572-0.957-2.905-2.25h-19.595v-1.5h20.25c0.415,0,0.75,0.336,0.75,0.75
				c0,0.827,0.673,1.5,1.5,1.5h3c0.827,0,1.5-0.673,1.5-1.5c0-0.414,0.335-0.75,0.75-0.75h20.25v1.5h-19.595
				C546.768,236.335,545.592,237.292,544.197,237.292z"/>
		</g>
		<g>
			<rect x="45.208" y="337.852" fill="#F8B55B" width="15.388" height="9.937"/>
			<path fill="#769AFF" d="M61.823,304.771c-0.514-0.024-0.999,0.152-1.369,0.504c-0.37,0.353-0.574,0.828-0.573,1.339
				c0,0.005-0.002,0.009-0.003,0.013v8.873c0,0.302-0.245,0.548-0.548,0.548s-0.548-0.246-0.548-0.548v-8.886l0,0v-3.466
				c0-1.038-0.782-1.925-1.744-1.973c-0.513-0.024-1,0.152-1.37,0.505c-0.37,0.351-0.574,0.825-0.574,1.336l0,11.736
				c0,0.304-0.245,0.548-0.548,0.548c-0.302,0-0.548-0.244-0.548-0.548v-11.736l0-1.132c0-1.04-0.783-1.926-1.746-1.975
				c-0.511-0.022-0.997,0.153-1.367,0.505c-0.37,0.352-0.574,0.826-0.574,1.336l-0.001,3.582l0,0c0,0.001,0,0.001,0,0.001v8.674
				c0,0.303-0.246,0.548-0.548,0.548s-0.548-0.245-0.548-0.548v-8.675c0-0.002,0-0.002,0-0.002v-0.063
				c-0.018-0.527-0.259-1.02-0.669-1.358c-0.433-0.356-0.98-0.493-1.544-0.386c-0.84,0.162-1.473,0.979-1.473,1.9v11.323
				c0,0.003-0.001,0.005-0.001,0.006l0,4.816c0,0.302-0.246,0.548-0.548,0.548s-0.548-0.246-0.548-0.548l0-4.822
				c0-0.747-0.326-1.456-0.873-1.896c-0.483-0.39-1.082-0.532-1.685-0.401c-0.961,0.209-1.686,1.245-1.686,2.407v8.707
				c0,1.211,0.452,2.395,1.238,3.246l2.724,2.757c0.89,0.901,1.38,2.096,1.38,3.362v1.731h14.717
				c0.028-3.668,0.582-7.304,1.646-10.813c1.112-3.671,1.676-7.475,1.676-11.309l0-7.793
				C63.566,305.707,62.784,304.821,61.823,304.771z"/>
			<path fill="#556DD3" d="M60.616,332.463H44.783c-0.208,0-0.375,0.168-0.375,0.375v4.639c0,0.207,0.167,0.375,0.375,0.375h15.833
				c0.207,0,0.375-0.168,0.375-0.375v-4.639C60.991,332.631,60.823,332.463,60.616,332.463z"/>
			<path fill="#8DDEF1" d="M86.442,312.783c-0.514-0.025-0.999,0.152-1.369,0.504c-0.37,0.353-0.574,0.827-0.574,1.339
				c0,0.004-0.002,0.007-0.002,0.012v8.874c0,0.302-0.246,0.548-0.548,0.548s-0.548-0.246-0.548-0.548v-8.886c0,0,0-0.001,0-0.002
				v-3.464c0-1.039-0.783-1.925-1.745-1.974c-0.512-0.023-1,0.152-1.369,0.505c-0.371,0.351-0.574,0.825-0.574,1.337l0,11.736
				c0,0.303-0.246,0.548-0.548,0.548s-0.548-0.245-0.548-0.548l0.001-11.736v-1.133c0-1.04-0.783-1.926-1.746-1.975
				c-0.512-0.021-0.998,0.154-1.367,0.506c-0.37,0.352-0.574,0.826-0.574,1.336l-0.001,3.581l0,0l0,0.002v8.673
				c0,0.303-0.246,0.548-0.548,0.548s-0.548-0.245-0.548-0.548v-8.675c0-0.001,0-0.001,0-0.001v-0.063
				c-0.018-0.527-0.26-1.02-0.67-1.357c-0.433-0.356-0.98-0.494-1.543-0.386c-0.84,0.161-1.474,0.979-1.474,1.899l0,11.324
				c0,0.002-0.001,0.004-0.001,0.006v4.815c0,0.303-0.245,0.549-0.548,0.549s-0.548-0.246-0.548-0.549l0-4.821
				c0-0.747-0.327-1.456-0.873-1.897c-0.483-0.39-1.082-0.531-1.685-0.401c-0.961,0.21-1.687,1.245-1.687,2.407v8.708
				c0,1.211,0.452,2.394,1.238,3.246l2.724,2.757c0.89,0.901,1.38,2.095,1.38,3.361v1.731h14.718
				c0.028-3.667,0.582-7.304,1.645-10.813c1.113-3.67,1.676-7.475,1.676-11.309l0-7.794
				C88.186,313.718,87.403,312.833,86.442,312.783z"/>
			<circle fill="#769AFF" cx="58.06" cy="335.158" r="1.125"/>
			<path fill="#556DD3" d="M85.032,341.845H70.045c-0.208,0-0.375,0.168-0.375,0.375v5.193c0,0.207,0.167,0.375,0.375,0.375h14.987
				c0.207,0,0.375-0.168,0.375-0.375v-5.193C85.407,342.013,85.239,341.845,85.032,341.845z"/>
			<circle fill="#769AFF" cx="82.341" cy="344.817" r="1.313"/>
		</g>
		<g>
			<rect x="162.969" y="305.271" fill="#8DDEF1" width="42.656" height="29.999"/>
			<path fill="#556DD3" d="M188.38,311.981v14.396c-0.584-0.387-1.293-0.618-2.064-0.618c-1.965,0-3.564,1.476-3.564,3.289
				c0,1.814,1.599,3.291,3.564,3.291s3.564-1.477,3.564-3.291v-11.313l10.968-3.046v7.42c-0.584-0.386-1.293-0.618-2.064-0.618
				c-1.966,0-3.565,1.476-3.565,3.289c0,1.814,1.599,3.29,3.565,3.29c1.965,0,3.564-1.476,3.564-3.29v-16.679L188.38,311.981z"/>
			<rect x="162.969" y="337.145" fill="#8DDEF1" width="46.406" height="2.25"/>
			<path fill="#769AFF" d="M165.487,323.634h3.953l2.369,2.368l2.369-2.368h2.37c0.976,0,1.096-0.349,1.771-1.024l9.048-9.048
				c0.68-0.68,1.782-0.68,2.461,0s0.68,1.781,0,2.461l-11.69,11.729c-0.56,0.563-0.861,1.243-0.861,2.037l-0.003,10.923h-10.93
				v-12.106l0,0c0-0.474-0.384-0.857-0.857-0.857c-0.001,0-0.003,0.002-0.004,0.002c-0.002,0-0.003-0.002-0.005-0.002
				c-0.473,0-0.856,0.384-0.856,0.857v11.43c-0.049,0.854-0.752,1.536-1.619,1.536c-0.897,0-1.627-0.73-1.627-1.627v-12.2
				C161.375,325.478,163.22,323.634,165.487,323.634z"/>
			<rect x="166.346" y="340.712" fill="#556DD3" width="10.926" height="1.714"/>
			<path fill="#F8B55B" d="M175.98,316.484c0.145,0.432,0.226,0.911,0.226,1.439c0,2.659-1.983,4.815-4.43,4.815
				c-2.447,0-4.43-2.156-4.43-4.815c0-0.063,0.007-0.122,0.009-0.184c0.491-0.056,1.106-0.236,1.878-0.591
				C172.096,315.833,174.49,316.07,175.98,316.484z"/>
			<path fill="#769AFF" d="M171.776,313.809c1.96,0,3.62,0.937,4.204,2.675c-1.49-0.414-3.884-0.65-6.747,0.665
				c-0.772,0.354-1.388,0.535-1.878,0.591C167.446,315.2,169.388,313.809,171.776,313.809z"/>
			<g>
				<polygon fill="#556DD3" points="167.07,323.634 170.624,327.188 171.809,326.002 169.439,323.634 				"/>
				<polygon fill="#556DD3" points="174.178,323.634 171.809,326.002 172.994,327.188 176.548,323.634 				"/>
			</g>
			<polygon fill="#F8B55B" points="171.809,326.002 172.994,327.188 172.994,337.851 171.809,339.037 170.624,337.851 
				170.624,327.188 			"/>
		</g>
		<g>
			<polygon fill="#F8B55B" points="298.316,324.463 298.316,327.821 299.845,327.821 299.845,331.177 308.721,331.177 
				308.721,327.821 310.25,327.821 310.25,324.463 			"/>
			<path fill="#769AFF" d="M314.639,310.205c0-5.894-4.923-10.638-10.882-10.344c-5.108,0.253-9.356,4.338-9.792,9.434
				c-0.218,2.549,0.49,4.924,1.823,6.829c1.706,2.438,2.577,5.363,2.577,8.34l0,0h11.835l0,0c0-2.946,0.817-5.869,2.527-8.27
				C313.931,314.503,314.639,312.438,314.639,310.205z"/>
			<path fill="#556DD3" d="M304.283,342.705c0,0-3.924-7.597-16.792-5.73l-1.958,3.657L304.283,342.705z"/>
			<path fill="#556DD3" d="M304.283,342.705c0,0,3.177-6.632,15.625-7.983l3.125,5.91L304.283,342.705z"/>
			<polygon fill="#8DDEF1" points="307.259,337.969 304.283,332.817 301.308,337.969 302.791,337.969 302.791,344.196 
				305.775,344.196 305.775,337.969 			"/>
			<g>
				<rect x="297.57" y="327.261" fill="#556DD3" width="13.426" height="1.119"/>
				<rect x="297.57" y="323.904" fill="#556DD3" width="13.426" height="1.119"/>
				<rect x="299.062" y="330.617" fill="#556DD3" width="10.442" height="1.119"/>
			</g>
			<polygon fill="#8DDEF1" points="304.283,315.505 299.39,310.612 300.972,309.03 304.283,312.341 313.848,302.776 315.43,304.358 
							"/>
			<path fill="#769AFF" d="M324.586,341.226c0,0-13.893-5.967-20.304,1.492c-6.41-7.459-20.303-1.492-20.303-1.492l-1.678,3.638
				h43.964L324.586,341.226z"/>
			<path fill="#8DDEF1" d="M300.554,344.864c1.477-0.795,5.982-0.795,7.459,0c-0.001,0-0.001,0-0.001,0
				c0,1.236-1.002,2.238-2.237,2.238h-2.983C301.555,347.102,300.553,346.1,300.554,344.864L300.554,344.864z"/>
			<path fill="#F8B55B" d="M305.775,347.848h-2.983c-1.388,0-2.558-0.951-2.89-2.237h-19.488v-1.492h20.14
				c0.412,0,0.746,0.334,0.746,0.746c0,0.822,0.669,1.492,1.492,1.492h2.983c0.822,0,1.492-0.67,1.492-1.492
				c0-0.412,0.333-0.746,0.746-0.746h20.14v1.492h-19.488C308.331,346.897,307.162,347.848,305.775,347.848z"/>
		</g>
		<g>
			<path fill="#8DDEF1" d="M401.265,323.629c4.212-6.574,4.296-8.239,4.296-8.239c1.705-14.521,13.554-15.542,16.857-15.542
				c0.542,0,0.966,0.021,1.184,0.021c2.421,0,17.209,0.624,17.283,15.766c0,0.037,0.003,0.07,0.003,0.106
				c0,12.775-4.923,14.038-6.724,18.014c-1.857,4.101-1.537,8.467-1.245,10.459c0.113,0.768-0.234,1.545-0.907,1.933
				c-3.959,2.282-12.779,2.27-16.686-0.037c-0.659-0.39-1.045-1.113-1.045-1.879v-5.633c0-0.841-1.096-0.925-1.532-0.925
				c-0.108,0-0.178,0.006-0.178,0.006s-0.229,0.011-0.599,0.011c-1.62,0-5.978-0.194-6.369-2.247
				c-0.481-2.526,0.065-7.562,0.065-7.562s-2.037-0.788-3.748-1.781C400.216,325.111,401.265,323.629,401.265,323.629z"/>
			<circle fill="#556DD3" cx="423.948" cy="316.302" r="11.25"/>
			<circle fill="#769AFF" cx="423.948" cy="316.302" r="7.5"/>
			<path fill="#F8B55B" d="M448.944,306.168l-6.45-6.32v3.498c0,0-14.231,0.616-18.546,12.956c0,0,8.146-7.545,18.546-7.312v3.497
				L448.944,306.168z"/>
		</g>
		<g>
			<g>
				<path fill="#769AFF" d="M519.852,329.148c-0.928,4.697-1.163,9.14-1.155,12.481c0.009,3.436,2.783,6.21,6.219,6.219
					c3.35,0.009,7.805-0.228,12.515-1.162c-3.091-1.951-6.527-4.818-9.68-7.971C524.636,335.601,521.802,332.209,519.852,329.148z"
					/>
				<path fill="#769AFF" d="M542.609,303.068l-0.975-0.366c-4.536,1.563-8.964,3.938-12.554,7.529
					c-3.542,3.542-5.902,7.899-7.466,12.371l0.353,0.937c2.464,6.548,14.413,18.496,20.96,20.961l1.083,0.407
					c4.449-1.563,8.779-3.917,12.304-7.44c3.591-3.592,5.969-8.022,7.531-12.562l-0.362-0.962
					C561.031,317.421,549.131,305.521,542.609,303.068z"/>
				<path fill="#769AFF" d="M560.479,299.848c-3.283-0.008-7.625,0.217-12.229,1.104c6.138,3.875,13.466,11.201,17.344,17.341
					c0.887-4.604,1.112-8.945,1.104-12.227C566.688,302.631,563.914,299.857,560.479,299.848z"/>
			</g>
			<g>
				<path fill="#8DDEF1" d="M548.25,300.953c-2.174,0.419-4.407,0.988-6.615,1.749l0.975,0.366
					c6.521,2.453,18.422,14.354,20.875,20.875l0.362,0.962c0.76-2.207,1.329-4.438,1.748-6.611
					C561.715,312.154,554.387,304.828,548.25,300.953z"/>
				<path fill="#8DDEF1" d="M521.967,323.539l-0.353-0.937c-0.762,2.182-1.336,4.391-1.762,6.546
					c1.95,3.062,4.784,6.453,7.899,9.567c3.152,3.152,6.589,6.02,9.68,7.971c2.167-0.429,4.387-1.008,6.58-1.779l-1.083-0.407
					C536.38,342.035,524.431,330.086,521.967,323.539z"/>
			</g>
			<path fill="#556DD3" d="M548.602,311.844l1.061-1.061l-2.651-2.652l-1.061,1.061l0.692,0.693
				c-1.073,0.743-2.122,1.518-3.151,2.315l-0.805-0.806l-1.061,1.061l0.676,0.677c-1.007,0.816-1.995,1.651-2.951,2.517
				l-0.857-0.856l-1.061,1.061l0.829,0.829c-0.468,0.443-0.946,0.879-1.4,1.333c-0.455,0.455-0.891,0.932-1.333,1.4l-0.829-0.829
				l-1.061,1.061l0.857,0.856c-0.866,0.955-1.701,1.944-2.516,2.95l-0.677-0.677l-1.061,1.061l0.806,0.806
				c-0.799,1.029-1.572,2.078-2.316,3.152l-0.692-0.693l-1.061,1.061l2.651,2.651l1.061-1.061l-0.883-0.883
				c0.739-1.078,1.512-2.128,2.308-3.159l0.779,0.778l1.061-1.061l-0.908-0.907c0.814-1.008,1.646-1.999,2.512-2.955l0.731,0.731
				l1.061-1.061l-0.762-0.762c0.442-0.469,0.879-0.946,1.334-1.4c0.454-0.454,0.931-0.891,1.399-1.333l0.761,0.762l1.061-1.061
				l-0.731-0.731c0.957-0.865,1.947-1.697,2.955-2.512l0.908,0.907l1.061-1.061l-0.779-0.778c1.031-0.796,2.083-1.569,3.159-2.308
				L548.602,311.844z"/>
		</g>
		<g>
			<polygon fill="#F8B55B" points="60.516,416.815 60.765,402.052 53.854,422.547 64.822,419.633 64.47,434.267 71.485,413.898 			
				"/>
			<path fill="#8DDEF1" d="M48.557,437.409h30.275c-2.026-3.088-2.026-8.085,0-11.174H48.557c-2.015,0-3.648,1.724-3.648,3.851
				v3.474C44.909,435.685,46.542,437.409,48.557,437.409z"/>
			<path fill="#769AFF" d="M48.759,425.498h31.003c0.408,0,0.738,0.33,0.738,0.738c0,0.407-0.33,0.738-0.738,0.738H48.759
				c-1.716,0-3.112,1.395-3.112,3.111v3.474c0,1.715,1.396,3.111,3.112,3.111h31.003c0.408,0,0.738,0.33,0.738,0.738
				s-0.33,0.738-0.738,0.738H48.759c-2.53,0-4.588-2.059-4.588-4.588v-3.474C44.17,427.555,46.229,425.498,48.759,425.498z"/>
			<path fill="#556DD3" d="M45.122,449.272h36.81c2.257,0,4.104-1.847,4.104-4.104v-2.136c0-2.257-1.847-4.104-4.104-4.104h-36.81
				C47.266,441.787,47.266,446.413,45.122,449.272z"/>
			<g>
				<path fill="#769AFF" d="M77.997,438.927h-5.146c2.257,0,4.104,1.848,4.104,4.104v2.136c0,2.258-1.847,4.104-4.104,4.104h5.146
					c2.257,0,4.103-1.847,4.103-4.104v-2.136C82.1,440.775,80.253,438.927,77.997,438.927z"/>
				<path fill="#769AFF" d="M62.149,438.927h-2.548c2.257,0,4.104,1.848,4.104,4.104v2.136c0,2.258-1.847,4.104-4.104,4.104h2.548
					c2.257,0,4.104-1.847,4.104-4.104v-2.136C66.252,440.775,64.406,438.927,62.149,438.927z"/>
			</g>
			<path fill="#8DDEF1" d="M44.372,449.272h12.729c2.257,0,4.104-1.847,4.104-4.104v-2.136c0-2.257-1.847-4.104-4.104-4.104H44.372
				C46.516,441.787,46.516,446.413,44.372,449.272z"/>
			<path fill="#556DD3" d="M81.181,438.147H43.086c-0.432,0-0.781,0.35-0.781,0.78c0,0.432,0.349,0.781,0.781,0.781h14.015
				c1.832,0,3.323,1.491,3.323,3.323v2.136c0,1.832-1.491,3.323-3.323,3.323H43.086c-0.432,0-0.781,0.35-0.781,0.781
				c0,0.431,0.349,0.78,0.781,0.78h38.095c2.693,0,4.885-2.191,4.885-4.885v-2.136C86.066,440.338,83.875,438.147,81.181,438.147z
				 M84.504,445.167c0,1.832-1.491,3.323-3.323,3.323h-20.51c0.813-0.873,1.314-2.039,1.314-3.323v-2.136
				c0-1.284-0.502-2.45-1.314-3.323h20.51c1.833,0,3.323,1.491,3.323,3.323V445.167z"/>
			<g>
				<path fill="#769AFF" d="M74.583,432.384c0.311,0,0.563-0.251,0.563-0.563c0-0.31-0.252-0.563-0.563-0.563H47.695
					c-0.311,0-0.563,0.253-0.563,0.563c0,0.312,0.252,0.563,0.563,0.563H74.583z"/>
				<path fill="#769AFF" d="M75.191,433.996H48.429c-0.311,0-0.563,0.252-0.563,0.563s0.252,0.563,0.563,0.563h26.762
					c0.311,0,0.563-0.252,0.563-0.563S75.502,433.996,75.191,433.996z"/>
				<path fill="#769AFF" d="M48.429,429.649h26.762c0.311,0,0.563-0.252,0.563-0.563s-0.251-0.563-0.563-0.563H48.429
					c-0.311,0-0.563,0.252-0.563,0.563S48.119,429.649,48.429,429.649z"/>
				<path fill="#769AFF" d="M57.449,441.8h-9.49c-0.311,0-0.563,0.253-0.563,0.563c0,0.312,0.252,0.563,0.563,0.563h9.49
					c0.311,0,0.563-0.251,0.563-0.563C58.011,442.053,57.759,441.8,57.449,441.8z"/>
				<path fill="#769AFF" d="M57.449,445.274h-9.49c-0.311,0-0.563,0.251-0.563,0.563c0,0.311,0.252,0.563,0.563,0.563h9.49
					c0.311,0,0.563-0.252,0.563-0.563C58.011,445.525,57.759,445.274,57.449,445.274z"/>
			</g>
		</g>
		<g>
			<path fill="#F8B55B" d="M185.375,431.528h-12.88v-22.821c-1.083-5.05,3.108-6.654,3.108-6.654s-0.626,3.242,2.101,5.462
				c2.24-1.25,4.865-1.756,7.672-1.756c2.808,0,5.435,0.506,7.675,1.757l-0.003-0.001c2.728-2.219,2.102-5.462,2.102-5.462
				s4.19,1.604,3.107,6.654v22.821H185.375z"/>
			<g>
				<path fill="#8DDEF1" d="M175.603,402.052c0,0-4.191,1.604-3.108,6.654l5.208-1.192
					C174.977,405.294,175.603,402.052,175.603,402.052z"/>
				<path fill="#8DDEF1" d="M195.149,402.052c0,0,0.626,3.243-2.102,5.462l0.003,0.001l5.206,1.191
					C199.339,403.657,195.149,402.052,195.149,402.052z"/>
			</g>
			<path fill="#556DD3" d="M181.99,418.892l3.381,4.037l3.39-4.037l0,0C186.605,417.936,184.146,417.936,181.99,418.892
				L181.99,418.892z"/>
			<g>
				<circle fill="#769AFF" cx="175.345" cy="415.397" r="8.227"/>
				<circle fill="#769AFF" cx="195.406" cy="415.397" r="8.227"/>
			</g>
			<g>
				<circle fill="#556DD3" cx="195.406" cy="415.397" r="3"/>
				<circle fill="#556DD3" cx="175.345" cy="415.397" r="3"/>
			</g>
			<path fill="#8DDEF1" d="M205.814,420.734c0,0-12.553-1.752-20.447,8.549c-7.894-10.301-20.447-8.549-20.447-8.549v4.617
				l20.441,3.939c-0.001,0.001-0.001,0.002-0.002,0.003l0.009-0.002l0.009,0.002c0-0.001-0.001-0.002-0.002-0.003l20.44-3.939
				V420.734z"/>
			<g>
				<polygon fill="#769AFF" points="161.375,445.427 182.75,449.547 182.75,428.788 161.375,424.667 				"/>
				<polygon fill="#769AFF" points="188,428.788 188,449.547 209.375,445.427 209.375,424.667 				"/>
			</g>
			<polygon fill="#556DD3" points="185.375,429.293 182.75,428.788 182.75,449.547 185.375,450.052 188,449.547 188,428.788 			"/>
			<polygon fill="#F8B55B" points="204.595,436.455 192.781,438.732 192.781,432.508 204.595,430.232 			"/>
		</g>
		<g>
			<rect x="280.283" y="409.552" fill="#F8B55B" width="48" height="40.5"/>
			<rect x="280.283" y="402.052" fill="#556DD3" width="48" height="7.5"/>
			<g>
				<path fill="#769AFF" d="M325.01,405.139c-0.359-0.353-0.982-0.346-1.327,0c-0.173,0.173-0.277,0.412-0.277,0.659
					c0,0.248,0.104,0.495,0.277,0.668c0.172,0.173,0.413,0.27,0.66,0.27s0.487-0.097,0.667-0.27c0.173-0.173,0.271-0.42,0.271-0.668
					C325.281,405.551,325.183,405.312,325.01,405.139z"/>
				<path fill="#769AFF" d="M319.843,404.869c-0.518,0-0.938,0.413-0.938,0.938c0,0.511,0.419,0.938,0.938,0.938
					c0.517,0,0.938-0.427,0.938-0.938C320.781,405.282,320.36,404.869,319.843,404.869z"/>
				<path fill="#769AFF" d="M314.683,405.139c-0.173,0.173-0.277,0.412-0.277,0.659c0,0.248,0.104,0.495,0.277,0.668
					c0.172,0.173,0.413,0.27,0.66,0.27s0.487-0.097,0.667-0.27c0.173-0.173,0.271-0.42,0.271-0.668c0-0.247-0.098-0.486-0.271-0.659
					C315.658,404.787,315.028,404.787,314.683,405.139z"/>
			</g>
			<path fill="#556DD3" d="M306.979,413.24c-1.49,0-2.697,1.206-2.697,2.696c0-1.49-1.206-2.696-2.696-2.696h-18.513v34.116h18.513
				c1.49,0,2.696,1.206,2.696,2.696c0-1.49,1.207-2.696,2.697-2.696h18.513V413.24H306.979z"/>
			<path fill="#8DDEF1" d="M304.283,415.563c0-2.493,2.018-4.511,4.511-4.511h14.659v34.489h-14.659
				c-2.493,0-4.511,2.018-4.511,4.511V415.563z"/>
			<path fill="#769AFF" d="M304.283,415.563c0-2.493-2.018-4.511-4.511-4.511h-14.659v34.489h14.659
				c2.493,0,4.511,2.018,4.511,4.511V415.563z"/>
			<g>
				<rect x="288.698" y="414.053" fill="#556DD3" width="11.25" height="1.5"/>
				<rect x="294.698" y="419.207" fill="#556DD3" width="5.25" height="1.5"/>
				<rect x="288.698" y="419.207" fill="#556DD3" width="3.749" height="1.5"/>
				<rect x="288.698" y="424.36" fill="#556DD3" width="7.5" height="1.5"/>
				<rect x="294.698" y="429.512" fill="#556DD3" width="5.25" height="1.5"/>
				<rect x="288.698" y="429.512" fill="#556DD3" width="3.749" height="1.5"/>
				<rect x="288.698" y="434.666" fill="#556DD3" width="9.75" height="1.5"/>
				<rect x="288.698" y="439.819" fill="#556DD3" width="11.25" height="1.5"/>
				<rect x="314.619" y="414.053" fill="#556DD3" width="5.25" height="1.5"/>
				<rect x="308.618" y="414.053" fill="#556DD3" width="3.749" height="1.5"/>
				<rect x="308.618" y="419.207" fill="#556DD3" width="11.25" height="1.5"/>
				<rect x="313.869" y="424.36" fill="#556DD3" width="6" height="1.5"/>
				<rect x="308.618" y="424.36" fill="#556DD3" width="2.999" height="1.5"/>
				<rect x="308.618" y="429.512" fill="#556DD3" width="9" height="1.5"/>
				<rect x="313.119" y="434.666" fill="#556DD3" width="6.75" height="1.5"/>
				<rect x="308.618" y="434.666" fill="#556DD3" width="2.249" height="1.5"/>
				<rect x="308.618" y="439.819" fill="#556DD3" width="6.75" height="1.5"/>
			</g>
		</g>
		<g>
			<path fill="#556DD3" d="M439.656,438.851L439.656,438.851l-33.558-0.001c-2.846,0-5.153,2.308-5.153,5.154v0.858l0,0v-37.622
				c0-2.846,2.307-5.152,5.153-5.152h33.558L439.656,438.851L439.656,438.851z"/>
			<path fill="#556DD3" d="M406.098,448.314h32.653c0.224,0.548,0.48,1.109,0.797,1.703h-0.095h-33.354
				c-2.846,0-5.153-2.307-5.153-5.153v-0.859c0-0.145,0.031-0.281,0.042-0.422C401.206,446.228,403.396,448.314,406.098,448.314z"/>
			<path fill="#769AFF" d="M439.656,438.851c-0.972,1.825-1.509,3.38-1.66,4.89c-0.149,1.496,0.094,2.953,0.755,4.573h-32.653
				c-2.702,0-4.893-2.086-5.111-4.731c0.218-2.646,2.409-4.732,5.111-4.732h32.749L439.656,438.851L439.656,438.851z"/>
			<rect x="406.136" y="402.087" fill="#8DDEF1" width="33.521" height="36.763"/>
			<g>
				<rect x="405.735" y="444.806" fill="#8DDEF1" width="30.076" height="1.5"/>
				<rect x="405.735" y="440.893" fill="#8DDEF1" width="27.84" height="1.5"/>
			</g>
			<g>
				<rect x="408.048" y="436.974" fill="#556DD3" width="1.5" height="1.875"/>
				<rect x="408.048" y="418.549" fill="#556DD3" width="1.5" height="3.839"/>
				<rect x="408.048" y="424.692" fill="#556DD3" width="1.5" height="3.838"/>
				<rect x="408.048" y="430.833" fill="#556DD3" width="1.5" height="3.839"/>
				<rect x="408.048" y="406.266" fill="#556DD3" width="1.5" height="3.839"/>
				<rect x="408.048" y="412.408" fill="#556DD3" width="1.5" height="3.839"/>
				<rect x="408.048" y="402.087" fill="#556DD3" width="1.5" height="1.875"/>
			</g>
			<polygon fill="#769AFF" points="448.945,405.833 448.945,431.43 426.354,431.43 418.311,435.689 418.311,431.43 413.615,431.43 
				413.615,405.833 			"/>
			<polygon fill="#F8B55B" points="433.527,430.68 433.527,420.877 448.196,420.877 448.196,416.384 433.527,416.384 
				433.527,406.582 429.033,406.582 429.033,416.384 414.364,416.384 414.364,420.877 429.033,420.877 429.033,430.68 			"/>
			<path fill="#556DD3" d="M413.615,431.43h1.276l13.393-9.704v9.704h5.992v-9.704l13.393,9.704h1.276v-0.926l-12.253-8.877h12.253
				v-5.992h-12.254l12.254-8.878v-0.925h-1.276l-13.393,9.704v-9.704h-5.992v9.704l-13.393-9.704h-1.276v0.925l12.253,8.878h-12.253
				v5.992h12.253l-12.253,8.877V431.43z M427.936,420.129h-12.823v-2.996h12.823h0.348h1.498v-0.513v-0.985v-8.305h2.997v8.305
				v0.985v0.513h1.498h0.348h12.823v2.996h-12.823h-0.348h-1.498v0.512v0.986v8.305h-2.997v-8.305v-0.986v-0.512h-1.498H427.936z"/>
		</g>
		<g>
			<path fill="#769AFF" d="M521.697,450.052c-1.657,0-3-1.343-3-3v-37.5h48v37.5c0,1.657-1.343,3-3,3H521.697z"/>
			<path fill="#F8B55B" d="M566.697,409.552h-48v-2.25c0-1.656,1.343-3,3-3h42c1.657,0,3,1.344,3,3V409.552z"/>
			<g>
				<rect x="526.76" y="402.052" fill="#556DD3" width="1.875" height="4.5"/>
				<rect x="536.759" y="402.052" fill="#556DD3" width="1.875" height="4.5"/>
				<rect x="546.759" y="402.052" fill="#556DD3" width="1.875" height="4.5"/>
				<rect x="556.76" y="402.052" fill="#556DD3" width="1.875" height="4.5"/>
			</g>
			<rect x="528.787" y="444.84" fill="#F8B55B" width="5.907" height="1.5"/>
			<rect x="551.617" y="440.684" fill="#F8B55B" width="7.407" height="1.5"/>
			<g>
				<rect x="523.536" y="440.684" fill="#556DD3" width="2.367" height="1.5"/>
				<rect x="523.536" y="444.84" fill="#556DD3" width="2.367" height="1.5"/>
				<rect x="528.787" y="440.684" fill="#556DD3" width="10.407" height="1.5"/>
				<rect x="546.367" y="440.684" fill="#556DD3" width="2.367" height="1.5"/>
				<rect x="546.367" y="444.84" fill="#556DD3" width="2.367" height="1.5"/>
				<rect x="551.617" y="444.84" fill="#556DD3" width="10.408" height="1.5"/>
			</g>
			<g>
				<path fill="#8DDEF1" d="M539.616,413.434h-4.5c-0.62,0-1.125,0.505-1.125,1.125v3c0,0.62,0.505,1.125,1.125,1.125h4.5
					c0.621,0,1.125-0.505,1.125-1.125v-3C540.741,413.939,540.236,413.434,539.616,413.434z"/>
				<path fill="#8DDEF1" d="M550.445,413.434h-4.5c-0.62,0-1.125,0.505-1.125,1.125v3c0,0.62,0.505,1.125,1.125,1.125h4.5
					c0.621,0,1.125-0.505,1.125-1.125v-3C551.57,413.939,551.066,413.434,550.445,413.434z"/>
				<path fill="#8DDEF1" d="M561.275,413.434h-4.5c-0.62,0-1.125,0.505-1.125,1.125v3c0,0.62,0.505,1.125,1.125,1.125h4.5
					c0.621,0,1.125-0.505,1.125-1.125v-3C562.4,413.939,561.896,413.434,561.275,413.434z"/>
				<path fill="#8DDEF1" d="M528.786,422.435h-4.5c-0.62,0-1.125,0.505-1.125,1.125v3c0,0.62,0.505,1.125,1.125,1.125h4.5
					c0.621,0,1.125-0.505,1.125-1.125v-3C529.911,422.94,529.407,422.435,528.786,422.435z"/>
				<path fill="#8DDEF1" d="M539.616,422.435h-4.5c-0.62,0-1.125,0.505-1.125,1.125v3c0,0.62,0.505,1.125,1.125,1.125h4.5
					c0.621,0,1.125-0.505,1.125-1.125v-3C540.741,422.94,540.236,422.435,539.616,422.435z"/>
				<path fill="#8DDEF1" d="M550.445,422.435h-4.5c-0.62,0-1.125,0.505-1.125,1.125v3c0,0.62,0.505,1.125,1.125,1.125h4.5
					c0.621,0,1.125-0.505,1.125-1.125v-3C551.57,422.94,551.066,422.435,550.445,422.435z"/>
				<path fill="#8DDEF1" d="M561.275,422.435h-4.5c-0.62,0-1.125,0.505-1.125,1.125v3c0,0.62,0.505,1.125,1.125,1.125h4.5
					c0.621,0,1.125-0.505,1.125-1.125v-3C562.4,422.94,561.896,422.435,561.275,422.435z"/>
				<path fill="#8DDEF1" d="M528.786,431.436h-4.5c-0.62,0-1.125,0.504-1.125,1.125v3c0,0.62,0.505,1.125,1.125,1.125h4.5
					c0.621,0,1.125-0.505,1.125-1.125v-3C529.911,431.94,529.407,431.436,528.786,431.436z"/>
				<path fill="#8DDEF1" d="M539.616,431.436h-4.5c-0.62,0-1.125,0.504-1.125,1.125v3c0,0.62,0.505,1.125,1.125,1.125h4.5
					c0.621,0,1.125-0.505,1.125-1.125v-3C540.741,431.94,540.236,431.436,539.616,431.436z"/>
				<path fill="#8DDEF1" d="M550.445,431.436h-4.5c-0.62,0-1.125,0.504-1.125,1.125v3c0,0.62,0.505,1.125,1.125,1.125h4.5
					c0.621,0,1.125-0.505,1.125-1.125v-3C551.57,431.94,551.066,431.436,550.445,431.436z"/>
			</g>
		</g>
		<g>
			<path fill="#556DD3" d="M79.937,542.9L79.937,542.9l-33.607-0.001c-2.85,0-5.161,2.312-5.161,5.162v0.86l0,0v-37.678
				c0-2.851,2.311-5.16,5.161-5.16h33.607L79.937,542.9L79.937,542.9z"/>
			<path fill="#556DD3" d="M46.33,552.376h32.701c0.224,0.548,0.481,1.11,0.798,1.706h-0.095H46.33c-2.85,0-5.161-2.311-5.161-5.161
				v-0.86c0-0.146,0.031-0.281,0.043-0.423C41.431,550.288,43.625,552.376,46.33,552.376z"/>
			<path fill="#769AFF" d="M79.937,542.9c-0.974,1.828-1.511,3.385-1.662,4.897c-0.149,1.497,0.094,2.957,0.756,4.579H46.33
				c-2.705,0-4.899-2.089-5.118-4.738c0.218-2.649,2.413-4.739,5.118-4.739h32.797L79.937,542.9L79.937,542.9z"/>
			<rect x="46.368" y="506.083" fill="#8DDEF1" width="33.57" height="36.816"/>
			<g>
				<rect x="45.966" y="548.865" fill="#556DD3" width="30.12" height="1.5"/>
				<rect x="45.966" y="544.947" fill="#556DD3" width="27.881" height="1.5"/>
			</g>
			<g>
				<rect x="49.596" y="540.649" fill="#556DD3" width="1.875" height="2.25"/>
				<rect x="49.596" y="533.304" fill="#556DD3" width="1.875" height="4.406"/>
				<rect x="49.596" y="525.959" fill="#556DD3" width="1.875" height="4.406"/>
				<rect x="49.596" y="511.271" fill="#556DD3" width="1.875" height="4.406"/>
				<rect x="49.596" y="518.615" fill="#556DD3" width="1.875" height="4.407"/>
				<rect x="49.596" y="506.083" fill="#556DD3" width="1.875" height="2.25"/>
			</g>
			<path fill="#556DD3" d="M86.47,523.074h-1.966c-0.135-0.887-0.369-1.74-0.686-2.552l1.704-0.984
				c0.35-0.202,0.47-0.649,0.268-0.999l-1.097-1.899c-0.202-0.351-0.649-0.47-0.999-0.268l-1.706,0.984
				c-0.553-0.688-1.179-1.314-1.868-1.867l0.985-1.705c0.202-0.351,0.082-0.797-0.267-0.999l-1.9-1.098
				c-0.35-0.201-0.797-0.082-0.999,0.269l-0.984,1.704c-0.812-0.317-1.666-0.552-2.552-0.686v-1.967c0-0.403-0.327-0.73-0.731-0.73
				h-2.194c-0.404,0-0.731,0.327-0.731,0.73v1.967c-0.887,0.134-1.74,0.368-2.552,0.686l-0.984-1.704
				c-0.202-0.351-0.649-0.47-0.999-0.269l-1.9,1.098c-0.35,0.202-0.47,0.648-0.268,0.999l0.985,1.705
				c-0.688,0.553-1.314,1.179-1.867,1.867l-1.706-0.984c-0.35-0.202-0.797-0.083-0.999,0.268l-1.097,1.899
				c-0.202,0.35-0.082,0.797,0.268,0.999l1.704,0.984c-0.317,0.812-0.551,1.665-0.686,2.552h-1.966c-0.404,0-0.731,0.327-0.731,0.73
				v2.193c0,0.404,0.327,0.732,0.731,0.732h1.966c0.135,0.886,0.369,1.739,0.686,2.552l-1.704,0.983
				c-0.35,0.202-0.47,0.648-0.268,0.999l1.097,1.899c0.202,0.35,0.649,0.47,0.999,0.268l1.706-0.984
				c0.552,0.688,1.178,1.314,1.867,1.867l-0.985,1.706c-0.202,0.35-0.082,0.797,0.268,0.999l1.9,1.097
				c0.349,0.201,0.797,0.082,0.999-0.268l0.984-1.705c0.812,0.317,1.665,0.551,2.552,0.686v1.966c0,0.404,0.327,0.732,0.731,0.732
				h2.194c0.404,0,0.731-0.328,0.731-0.732v-1.966c0.886-0.135,1.74-0.368,2.552-0.686l0.984,1.705
				c0.202,0.35,0.649,0.469,0.999,0.268l1.9-1.097c0.349-0.202,0.469-0.649,0.267-0.999l-0.985-1.706
				c0.688-0.553,1.315-1.18,1.868-1.867l1.706,0.984c0.35,0.202,0.797,0.082,0.999-0.268l1.097-1.899
				c0.202-0.351,0.082-0.797-0.268-0.999l-1.704-0.983c0.316-0.813,0.551-1.666,0.686-2.552h1.966c0.404,0,0.731-0.328,0.731-0.732
				v-2.193C87.202,523.401,86.875,523.074,86.47,523.074z"/>
			<circle fill="#F8B55B" cx="72.6" cy="524.925" r="6.75"/>
		</g>
		<g>
			<circle fill="#769AFF" cx="185.375" cy="527.505" r="17.625"/>
			<path fill="#556DD3" d="M198.782,514.792c-3.528-3.719-8.289-5.768-13.406-5.768c-5.117,0-9.878,2.049-13.406,5.768
				c-3.272,3.45-5.074,7.964-5.074,12.713s1.802,9.264,5.074,12.713c3.527,3.72,8.289,5.769,13.406,5.769
				c5.118,0,9.879-2.049,13.406-5.769c3.272-3.449,5.075-7.964,5.075-12.713C203.856,522.757,202.054,518.243,198.782,514.792z
				 M172.977,538.171c-0.068,0.047-0.139,0.095-0.204,0.142c-2.383-2.774-3.757-6.225-3.962-9.87h6.197
				c0.153,2.637,0.939,5.105,1.998,7.314C175.5,536.492,174.146,537.34,172.977,538.171z M168.812,526.568
				c0.205-3.645,1.579-7.096,3.962-9.869c0.092,0.066,0.189,0.133,0.285,0.2c1.149,0.813,2.477,1.639,3.948,2.354
				c-1.059,2.209-1.846,4.679-1.999,7.314H168.812z M174.208,515.416c-0.041-0.029-0.077-0.058-0.118-0.087
				c2.444-2.273,5.454-3.713,8.71-4.217c-1.416,1.462-3.332,3.705-4.92,6.48C176.519,516.933,175.283,516.17,174.208,515.416z
				 M174.092,539.683c0.07-0.05,0.133-0.098,0.204-0.147c1.054-0.735,2.259-1.477,3.584-2.118c1.588,2.777,3.504,5.02,4.92,6.48
				C179.545,543.395,176.536,541.957,174.092,539.683z M184.438,542.875c-1.312-1.333-3.223-3.516-4.798-6.217
				c1.505-0.568,3.119-0.975,4.798-1.087V542.875z M184.438,533.692c-2.01,0.119-3.927,0.61-5.689,1.3
				c-0.968-1.999-1.688-4.216-1.845-6.549h7.534V533.692z M184.438,526.568h-7.534c0.156-2.333,0.876-4.55,1.845-6.55
				c1.762,0.69,3.679,1.181,5.689,1.301V526.568z M184.438,519.438c-1.679-0.111-3.293-0.517-4.798-1.087
				c1.575-2.7,3.486-4.882,4.798-6.216V519.438z M197.977,538.313c-0.092-0.067-0.189-0.134-0.284-0.201
				c-0.052-0.036-0.102-0.072-0.154-0.108c-0.025-0.019-0.05-0.036-0.076-0.054c0,0.001-0.001,0.001-0.001,0.002
				c-1.096-0.76-2.343-1.525-3.717-2.195c1.059-2.208,1.846-4.677,1.999-7.313h6.197
				C201.736,532.087,200.362,535.539,197.977,538.313z M195.743,526.568c-0.153-2.637-0.94-5.105-2-7.313
				c1.523-0.742,2.888-1.601,4.064-2.439c0.057-0.039,0.116-0.078,0.169-0.116c2.385,2.774,3.759,6.225,3.963,9.869H195.743z
				 M196.661,515.329c-0.071,0.051-0.139,0.1-0.211,0.15c-1.052,0.733-2.255,1.473-3.578,2.113
				c-1.585-2.772-3.504-5.019-4.919-6.479C191.209,511.616,194.217,513.054,196.661,515.329z M186.313,512.131
				c1.313,1.333,3.226,3.515,4.802,6.219c-1.505,0.57-3.121,0.977-4.802,1.089V512.131z M186.313,521.319
				c2.012-0.12,3.93-0.611,5.693-1.301c0.967,1.998,1.686,4.215,1.841,6.55h-7.535V521.319z M186.313,528.443h7.535
				c-0.156,2.333-0.876,4.55-1.844,6.549c-1.763-0.689-3.68-1.181-5.69-1.3V528.443z M186.313,535.572
				c1.679,0.112,3.294,0.518,4.798,1.087c-1.575,2.701-3.486,4.884-4.798,6.218V535.572z M192.871,537.417
				c1.327,0.643,2.533,1.385,3.588,2.12c0.07,0.049,0.132,0.097,0.2,0.146c-2.443,2.273-5.452,3.712-8.708,4.215
				C189.367,542.437,191.283,540.195,192.871,537.417z"/>
			<path fill="#F8B55B" d="M205.791,544.483c0,0-13.969-6-20.415,1.501c-6.446-7.501-20.415-1.501-20.415-1.501l-1.688,3.657h44.205
				L205.791,544.483z"/>
			<path fill="#8DDEF1" d="M181.626,548.141c1.485-0.801,6.015-0.801,7.5,0c-0.001,0-0.001,0-0.001,0c0,1.242-1.007,2.25-2.25,2.25
				h-3C182.633,550.391,181.625,549.383,181.626,548.141L181.626,548.141z"/>
			<path fill="#556DD3" d="M186.875,551.14h-3c-1.395,0-2.571-0.956-2.905-2.25h-19.595v-1.5h20.25c0.199,0,0.39,0.08,0.53,0.221
				s0.22,0.332,0.22,0.529c0,0.401,0.156,0.778,0.439,1.062s0.66,0.438,1.061,0.438h3c0.827,0,1.5-0.672,1.5-1.5
				c0-0.413,0.336-0.75,0.75-0.75h20.25v1.5h-19.595C189.447,550.184,188.271,551.14,186.875,551.14z"/>
		</g>
		<g>
			<path fill="#556DD3" d="M327.136,512.744c0.634,0,1.147,0.514,1.147,1.147v36.46c0,0.634-0.513,1.146-1.147,1.146H281.43
				c-0.633,0-1.147-0.513-1.147-1.146v-36.46c0-0.634,0.514-1.147,1.147-1.147H327.136z"/>
			<path fill="#769AFF" d="M285.158,508.667v38.521c15.414,0,19.122,4.31,19.122,4.31l0.007-38.754
				C304.287,512.744,300.571,508.667,285.158,508.667z"/>
			<path fill="#8DDEF1" d="M304.287,512.744v38.754c0,0,3.708-4.31,19.121-4.31v-38.521
				C307.994,508.667,304.287,512.744,304.287,512.744z"/>
			<path fill="#F8B55B" d="M304.287,524v15.419v3.923l4.549-6.22c2.547-0.772,6.382-1.442,12.041-1.442V520.26
				C307.503,520.26,304.287,524,304.287,524z"/>
			<g>
				<path fill="#556DD3" d="M312.481,522.985c-1.916,0-3.475,1.559-3.475,3.475c0,0.414,0.335,0.75,0.75,0.75s0.75-0.336,0.75-0.75
					c0-1.089,0.886-1.975,1.975-1.975c1.089,0,1.975,0.886,1.975,1.975c0,0.751-0.327,1.022-1.008,1.519
					c-0.725,0.526-1.716,1.248-1.716,2.961c0,0.414,0.335,0.75,0.75,0.75s0.75-0.336,0.75-0.75c0-0.949,0.438-1.268,1.099-1.748
					c0.687-0.5,1.626-1.184,1.626-2.731C315.956,524.543,314.397,522.985,312.481,522.985z"/>
				<path fill="#556DD3" d="M311.955,533.455c-0.142,0.135-0.225,0.33-0.225,0.532c0,0.195,0.083,0.391,0.218,0.525
					c0.143,0.143,0.337,0.225,0.532,0.225s0.391-0.082,0.533-0.225c0.143-0.143,0.217-0.33,0.217-0.525
					c0-0.202-0.075-0.39-0.217-0.532C312.735,533.177,312.225,533.177,311.955,533.455z"/>
			</g>
			<g>
				<path fill="#8DDEF1" d="M300.296,515.371c-2.9-0.989-6.516-1.628-10.747-1.896l-0.095,1.497
					c4.099,0.26,7.583,0.871,10.357,1.817L300.296,515.371z"/>
				<path fill="#8DDEF1" d="M300.292,520.843c-2.899-0.989-6.513-1.625-10.743-1.895l-0.095,1.497
					c4.097,0.261,7.581,0.871,10.354,1.816L300.292,520.843z"/>
				<path fill="#8DDEF1" d="M300.3,526.32c-2.9-0.99-6.518-1.629-10.752-1.896l-0.095,1.497c4.102,0.26,7.588,0.872,10.363,1.819
					L300.3,526.32z"/>
				<path fill="#8DDEF1" d="M295.854,530.654c-1.909-0.358-4.031-0.612-6.306-0.757l-0.095,1.497
					c2.215,0.141,4.275,0.388,6.125,0.733L295.854,530.654z"/>
				<path fill="#8DDEF1" d="M289.455,536.869c4.104,0.261,7.589,0.873,10.361,1.819l0.485-1.42
					c-2.897-0.989-6.515-1.627-10.75-1.896L289.455,536.869z"/>
				<path fill="#8DDEF1" d="M289.455,542.342c2.949,0.188,5.604,0.562,7.892,1.11l0.35-1.459c-2.371-0.568-5.112-0.955-8.147-1.148
					L289.455,542.342z"/>
			</g>
		</g>
		<g>
			<rect x="400.945" y="513.583" fill="#8DDEF1" width="48" height="40.5"/>
			<polygon fill="#556DD3" points="420.399,530.559 420.399,548.761 435.408,548.761 443.159,554.083 443.159,548.761 
				448.945,548.761 448.945,530.559 			"/>
			<rect x="400.945" y="506.083" fill="#556DD3" width="48" height="7.5"/>
			<g>
				<path fill="#8DDEF1" d="M445.672,509.169c-0.352-0.353-0.982-0.353-1.327,0c-0.173,0.172-0.277,0.42-0.277,0.668
					c0,0.24,0.104,0.479,0.277,0.659c0.172,0.173,0.42,0.271,0.66,0.271c0.248,0,0.487-0.098,0.667-0.271
					c0.173-0.18,0.271-0.419,0.271-0.659C445.943,509.582,445.845,509.341,445.672,509.169z"/>
				<circle fill="#8DDEF1" cx="440.505" cy="509.83" r="0.938"/>
				<path fill="#8DDEF1" d="M435.345,509.169c-0.173,0.172-0.277,0.42-0.277,0.668c0,0.24,0.104,0.479,0.277,0.659
					c0.172,0.173,0.42,0.271,0.66,0.271c0.248,0,0.487-0.098,0.667-0.271c0.173-0.18,0.271-0.419,0.271-0.659
					c0-0.248-0.098-0.496-0.271-0.668C436.328,508.817,435.69,508.817,435.345,509.169z"/>
			</g>
			<polygon fill="#769AFF" points="438.491,513.583 438.491,537.786 414.482,537.786 406.731,543.107 406.731,537.786 
				400.945,537.786 400.945,513.583 			"/>
			<g>
				<rect x="420.801" y="519.497" fill="#8DDEF1" width="12.042" height="1.875"/>
				<rect x="428.302" y="524.783" fill="#8DDEF1" width="4.542" height="1.875"/>
				<rect x="420.801" y="524.747" fill="#8DDEF1" width="3.792" height="1.875"/>
				<rect x="420.801" y="530.033" fill="#8DDEF1" width="9.042" height="1.875"/>
			</g>
			<g>
				<rect x="435.66" y="542.099" fill="#8DDEF1" width="8.249" height="1.875"/>
				<rect x="425.908" y="542.099" fill="#8DDEF1" width="5.999" height="1.875"/>
			</g>
			<g>
				<path fill="#F8B55B" d="M414.95,525.172h-0.86c-0.763,0.771-1.82,1.249-2.99,1.249c-1.169,0-2.227-0.479-2.99-1.249h-0.86
					c-0.489,0.6-0.782,1.363-0.782,2.196v4.315h4.632h4.632v-4.315C415.732,526.536,415.439,525.772,414.95,525.172z"/>
				<circle fill="#F8B55B" cx="411.101" cy="522.21" r="2.526"/>
			</g>
		</g>
		<g>
			<path fill="#769AFF" d="M566.697,517.068c0-4.429-3.603-8.032-8.031-8.032h-3.415v-1.847c0-0.407-0.33-0.738-0.738-0.738h-23.631
				c-0.408,0-0.738,0.331-0.738,0.738v1.847h-3.415c-4.429,0-8.032,3.604-8.032,8.032c0,8.279,6.215,15.129,14.224,16.143
				c1.113,1.381,2.508,2.525,4.104,3.334c1.063,0.539,1.532,1.801,1.044,2.889l-2.758,6.157h14.771l-2.758-6.157
				c-0.486-1.088-0.018-2.35,1.045-2.889c1.596-0.809,2.991-1.953,4.104-3.334C560.482,532.197,566.697,525.347,566.697,517.068z
				 M520.913,517.068c0-3.207,2.609-5.816,5.816-5.816h3.415v14.093c0,1.889,0.421,3.678,1.168,5.284
				C525.332,529.01,520.913,523.552,520.913,517.068z M554.083,530.628c0.748-1.606,1.168-3.396,1.168-5.284v-14.093h3.415
				c3.208,0,5.815,2.609,5.815,5.816C564.481,523.552,560.063,529.01,554.083,530.628z"/>
			<path fill="#556DD3" d="M553.036,545.59h-20.677c-1.224,0-2.215,0.992-2.215,2.216v5.17c0,0.407,0.33,0.738,0.738,0.738h23.631
				c0.408,0,0.738-0.331,0.738-0.738v-5.17C555.251,546.583,554.26,545.59,553.036,545.59z"/>
			<polygon fill="#F8B55B" points="542.885,514.979 545.284,513.806 546.536,516.166 549.167,516.626 548.792,519.271 
				550.65,521.19 548.792,523.11 549.167,525.754 546.536,526.216 545.284,528.576 542.885,527.403 540.485,528.576 
				539.233,526.216 536.603,525.754 536.977,523.11 535.12,521.19 536.977,519.271 536.603,516.626 539.233,516.166 
				540.485,513.806 			"/>
			<path fill="#8DDEF1" d="M545.681,529.797l-2.796-1.368l-2.796,1.368l-1.459-2.75l-3.066-0.538l0.437-3.082l-2.165-2.236
				l2.165-2.237l-0.437-3.082l3.066-0.538l1.459-2.749l2.796,1.366l2.796-1.366l1.459,2.749l3.066,0.538l-0.437,3.082l2.165,2.237
				l-2.165,2.236l0.437,3.082l-3.066,0.538L545.681,529.797z M542.885,526.375l2.002,0.979l1.045-1.97l2.196-0.386l-0.313-2.206
				l1.55-1.602l-1.55-1.603l0.313-2.207l-2.196-0.385l-1.045-1.969l-2.002,0.979l-2.002-0.979l-1.045,1.969l-2.195,0.385
				l0.312,2.207l-1.55,1.603l1.55,1.602l-0.312,2.206l2.195,0.386l1.045,1.97L542.885,526.375z"/>
			<rect x="533.835" y="548.729" fill="#8DDEF1" width="17.724" height="1.846"/>
		</g>
	</g>
</g>
</svg>
