<?xml version="1.0" encoding="utf-8"?>
<!-- Generator: Adobe Illustrator 23.0.6, SVG Export Plug-In . SVG Version: 6.00 Build 0)  -->
<svg version="1.0" xmlns="http://www.w3.org/2000/svg" xmlns:xlink="http://www.w3.org/1999/xlink" x="0px" y="0px"
	 viewBox="0 0 1920 1080" style="enable-background:new 0 0 1920 1080;" xml:space="preserve">
<style type="text/css">
	.st0{fill:#FFFFFF;}
	.st1{fill:#008BFF;}
	.st2{fill:#FFE915;}
	.st3{fill:#FF55A9;}
	.st4{fill:#42006A;}
	.st5{clip-path:url(#SVGID_2_);}
	.st6{fill:url(#SVGID_3_);}
	.st7{fill:url(#SVGID_4_);}
	.st8{clip-path:url(#SVGID_6_);fill:url(#SVGID_7_);}
	.st9{clip-path:url(#SVGID_9_);}
	.st10{fill:url(#SVGID_10_);}
	.st11{fill:url(#SVGID_11_);}
	.st12{clip-path:url(#SVGID_13_);fill:url(#SVGID_14_);}
	.st13{fill:#7E1391;}
	.st14{font-family:'Montserrat-Bold';}
	.st15{font-size:33.4085px;}
	.st16{fill:#606060;}
	.st17{font-family:'Montserrat-Light';}
	.st18{font-size:18px;}
	.st19{font-size:68.3039px;}
	.st20{font-size:28px;}
	.st21{fill:none;}
	.st22{font-family:'Montserrat-Regular';}
</style>
<g id="background">
	<rect class="st0" width="1920" height="1080"/>
</g>
<g id="abstract_element">
	<g>
		<path class="st1" d="M515.5,889.7l-8.3,52.9c-5.8,37.2,34.8,64.1,66.8,44.2l29.4-18.3l29.5-18c32.2-19.7,26.4-68-9.5-79.5
			l-51-16.3C546.7,846.3,519.7,863,515.5,889.7z"/>
		<path class="st2" d="M1920,1080V406c-387.6-26.9-979.3-7.9-1064,325c-27,106.2-8,226.2,38.7,349H1920z"/>
		<path class="st3" d="M1317.7,241.5l-112.9,25.8c-79.5,18.2-100.9,121.4-35.2,169.7l60.3,44.3l60,44.9
			c65.3,48.9,157.8-1.6,152.1-83l-8.1-115.5C1429.9,269.4,1374.7,228.4,1317.7,241.5z"/>
		<path class="st4" d="M0,0v637.3c147,73.9,374.1,148.2,625.4,84.7c347.1-87.6,494.1-550.5,537.2-722H0z"/>
		<g>
			<g>
				<defs>
					<path id="SVGID_1_" d="M515.5,889.7l-8.3,52.9c-5.8,37.2,34.8,64.1,66.8,44.2l29.4-18.3l29.5-18c32.2-19.7,26.4-68-9.5-79.5
						l-51-16.3C546.7,846.3,519.7,863,515.5,889.7z"/>
				</defs>
				<clipPath id="SVGID_2_">
					<use xlink:href="#SVGID_1_"  style="overflow:visible;"/>
				</clipPath>
				<g class="st5">
					<radialGradient id="SVGID_3_" cx="627.8759" cy="1010.5417" r="111.836" gradientUnits="userSpaceOnUse">
						<stop  offset="0" style="stop-color:#155FFF"/>
						<stop  offset="1" style="stop-color:#FFFFFF"/>
					</radialGradient>
					<circle class="st6" cx="627.9" cy="1010.5" r="121.1"/>
					<radialGradient id="SVGID_4_" cx="548.2297" cy="866.6509" r="111.836" gradientUnits="userSpaceOnUse">
						<stop  offset="0" style="stop-color:#00E90F"/>
						<stop  offset="1" style="stop-color:#000000"/>
					</radialGradient>
					<circle class="st7" cx="548.2" cy="866.7" r="121.1"/>
				</g>
			</g>
			<g>
				<defs>
					<path id="SVGID_5_" d="M1920,1080V406c-387.6-26.9-979.3-7.9-1064,325c-27,106.2-8,226.2,38.7,349H1920z"/>
				</defs>
				<clipPath id="SVGID_6_">
					<use xlink:href="#SVGID_5_"  style="overflow:visible;"/>
				</clipPath>
				<radialGradient id="SVGID_7_" cx="1496.5436" cy="936.5121" r="1116.3822" gradientUnits="userSpaceOnUse">
					<stop  offset="0.3748" style="stop-color:#000000"/>
					<stop  offset="0.442" style="stop-color:#140813"/>
					<stop  offset="0.579" style="stop-color:#461D45"/>
					<stop  offset="0.7743" style="stop-color:#983F96"/>
					<stop  offset="1" style="stop-color:#FF6AFB"/>
				</radialGradient>
				<circle class="st8" cx="1496.5" cy="936.5" r="720.5"/>
			</g>
			<g>
				<defs>
					<path id="SVGID_8_" d="M1317.7,241.5l-112.9,25.8c-79.5,18.2-100.9,121.4-35.2,169.7l60.3,44.3l60,44.9
						c65.3,48.9,157.8-1.6,152.1-83l-8.1-115.5C1429.9,269.4,1374.7,228.4,1317.7,241.5z"/>
				</defs>
				<clipPath id="SVGID_9_">
					<use xlink:href="#SVGID_8_"  style="overflow:visible;"/>
				</clipPath>
				<g class="st9">
					<radialGradient id="SVGID_10_" cx="1358.3268" cy="516.2515" r="174.0389" gradientUnits="userSpaceOnUse">
						<stop  offset="0" style="stop-color:#155FFF"/>
						<stop  offset="1" style="stop-color:#FFFFFF"/>
					</radialGradient>
					<circle class="st10" cx="1358.3" cy="516.3" r="188.4"/>
					<radialGradient id="SVGID_11_" cx="1234.3816" cy="292.329" r="174.0389" gradientUnits="userSpaceOnUse">
						<stop  offset="0" style="stop-color:#00E90F"/>
						<stop  offset="1" style="stop-color:#000000"/>
					</radialGradient>
					<circle class="st11" cx="1234.4" cy="292.3" r="188.4"/>
				</g>
			</g>
			<g>
				<defs>
					<path id="SVGID_12_" d="M0,0v637.3c147,73.9,374.1,148.2,625.4,84.7c347.1-87.6,494.1-550.5,537.2-722H0z"/>
				</defs>
				<clipPath id="SVGID_13_">
					<use xlink:href="#SVGID_12_"  style="overflow:visible;"/>
				</clipPath>
				<radialGradient id="SVGID_14_" cx="490.5195" cy="239" r="1132.4823" gradientUnits="userSpaceOnUse">
					<stop  offset="0.3748" style="stop-color:#000000"/>
					<stop  offset="0.442" style="stop-color:#140813"/>
					<stop  offset="0.579" style="stop-color:#461D45"/>
					<stop  offset="0.7743" style="stop-color:#983F96"/>
					<stop  offset="1" style="stop-color:#FF6AFB"/>
				</radialGradient>
				<circle class="st12" cx="490.5" cy="239" r="730.9"/>
			</g>
		</g>
	</g>
</g>
<g id="button_and_shape">
	<g>
		<rect x="284" y="239" class="st0" width="59" height="3"/>
		<g>
			<rect x="96" y="983" class="st4" width="29" height="10"/>
			<g>
				<path class="st13" d="M1772.5,589.5L1772.5,589.5c-27.3,0-49.5-22.2-49.5-49.5v0c0-27.3,22.2-49.5,49.5-49.5l0,0
					c27.3,0,49.5,22.2,49.5,49.5v0C1822,567.3,1799.8,589.5,1772.5,589.5z"/>
				<g>
					
						<rect x="1770" y="529.8" transform="matrix(0.7071 -0.7071 0.7071 0.7071 139.5656 1410.5771)" class="st0" width="5" height="14"/>
					
						<rect x="1770" y="536.2" transform="matrix(-0.7071 -0.7071 0.7071 -0.7071 2641.759 2180.6165)" class="st0" width="5" height="14"/>
				</g>
			</g>
		</g>
	</g>
</g>
<g id="text_edit">
	<g>
		<text transform="matrix(1 0 0 1 96.0996 124.3516)" class="st0 st14 st15">Your Company Name</text>
		<text transform="matrix(1 0 0 1 1261.2168 124.4658)" class="st16 st17 st18">HOME                FEATURES                ABOUT                 CONTACT US</text>
		<text transform="matrix(1 0 0 1 284.9556 350.0361)"><tspan x="0" y="0" class="st0 st14 st19">Make </tspan><tspan x="0" y="82" class="st0 st14 st19">Your Page</tspan><tspan x="0" y="163.9" class="st0 st14 st19">Awesome</tspan></text>
		<text transform="matrix(1 0 0 1 95.6323 828.3862)"><tspan x="0" y="0" class="st14 st20">Lorem</tspan><tspan x="0" y="33.6" class="st14 st20">Ipsum Dolor</tspan></text>
		<rect x="95.6" y="906.8" class="st21" width="305.4" height="60.2"/>
		<text transform="matrix(1 0 0 1 95.6323 920.1909)"><tspan x="0" y="0" class="st16 st22 st18">Lorem ipsum dolor sit amet, con</tspan><tspan x="292.8" y="0" class="st16 st22 st18">-</tspan><tspan x="0" y="28" class="st16 st22 st18">sectetuer adipiscing.</tspan></text>
	</g>
</g>
</svg>
