<svg id="Layer_1" data-name="Layer 1" xmlns="http://www.w3.org/2000/svg" xmlns:xlink="http://www.w3.org/1999/xlink" viewBox="0 0 2924.83 1889.13"><defs><style>.cls-1,.cls-4,.cls-7{fill:none;}.cls-2{fill:#ffecce;}.cls-3{fill:#ffdeaa;}.cls-4{stroke:#ffc468;}.cls-4,.cls-7{stroke-miterlimit:10;stroke-width:4.27px;}.cls-5{clip-path:url(#clip-path);}.cls-6{fill:#ffc468;}.cls-7{stroke:#ffe4ab;}.cls-8{fill:#cdd5d7;}.cls-9{fill:#0450cf;}.cls-10{fill:#eaf4fe;}.cls-11{fill:#9ac7f7;}.cls-12{fill:#69aeeb;}.cls-13{fill:#4e99ff;}.cls-14{fill:#fff;}.cls-15{fill:#fd2227;}.cls-16{fill:#12b886;}.cls-17{clip-path:url(#clip-path-2);}.cls-18{fill:#f7b68b;}.cls-19{fill:#202954;}.cls-20{fill:#1c234a;}.cls-21{fill:#ec9568;}.cls-22{fill:#31336d;}</style><clipPath id="clip-path"><path class="cls-1" d="M699.42,946.84s68.36-147.06,5.68-233.93S518.35,590.26,518.35,590.26s-73.25,173.29,5.94,259.41S679.36,926.27,699.42,946.84Z"/></clipPath><clipPath id="clip-path-2"><rect class="cls-1" x="816.13" y="352.73" width="1081.2" height="991.45"/></clipPath></defs><title>Artboard 1</title><path class="cls-2" d="M2212.45,831.17C1824.27,579.34,1412.17-41.32,993.57,372.91c-207.06,189-384.71,547.3-451.48,798.84C511,1292.46,503,1391.2,522.28,1472.39H2483.15c63.48-123.93,85.54-233,70.56-310.58C2529.53,1018.62,2400.26,971.15,2212.45,831.17Z"/><path class="cls-3" d="M1087.27,778.77s-43.76,5.5-161.68,89.7"/><path class="cls-3" d="M1015.39,842.68a191.43,191.43,0,0,0,18.73-8.24q4.29-2.18,8.19-4.46c2.62-1.4,5.13-2.72,7.51-4.15a124,124,0,0,0,12.83-8.72,83.48,83.48,0,0,0,10-8.3,82.13,82.13,0,0,0,7.36-8.06,47,47,0,0,0,2.76-4,36,36,0,0,0,3.54-7.45c.19-.61.39-1.25.55-1.85s.17-1.17.25-1.76a22.23,22.23,0,0,0,.08-7,10.58,10.58,0,0,0-3-6.38,24.36,24.36,0,0,0-3-2.65,22.1,22.1,0,0,0-4-2.22,37.42,37.42,0,0,0-10.41-2.76,56.15,56.15,0,0,0-6.35-.51,55.57,55.57,0,0,0-6.77.28,104.18,104.18,0,0,0-15.24,2.6A146.1,146.1,0,0,0,1022,773c-2.86,1.24-5.87,2.52-8.76,4.06s-5.74,3.27-8.67,5.08c-5.84,3.64-11.84,7.8-17.88,12.45a181.64,181.64,0,0,0-16.23,15c-2.9,2.95-5.84,6.08-8.78,9.33s-5.91,6.55-8.63,10.13c-11.11,14-21.31,28.67-27.52,39.39a392.36,392.36,0,0,0,44.63-10.32l6-1.81,6.07-1.71c4-1.14,8-2.36,11.83-3.63A195.29,195.29,0,0,0,1015.39,842.68Z"/><path class="cls-3" d="M1035.33,901.06s-138.29,5.79-144,6.42"/><path class="cls-3" d="M962.75,932.16c46.44,6.73,74.18-12.86,72.55-31.12-.61-18.32-30.26-35.31-75.18-24.82-9.48,1.89-22.7,6.86-35.48,12.77s-25.15,12.76-33.3,18.46a289.44,289.44,0,0,0,34.59,15.16C938.71,927.25,951.81,931,962.75,932.16Z"/><line class="cls-3" x1="921.65" y1="782.44" x2="878.57" y2="906.62"/><path class="cls-3" d="M926,855.32c22.09-37.08,13.18-67.59-4.36-72.88-17.27-6.17-43.15,12.88-48.56,54.53-2.82,17,.66,51,5.48,69.64C893.93,895.06,916.08,873.48,926,855.32Z"/><path class="cls-3" d="M843.58,775.08s-45.16,90.42-3.91,175.12"/><path class="cls-3" d="M850.37,865.73c1.35-6.28,2.51-12.18,3.5-17.79s1.84-10.93,2.5-16a144.94,144.94,0,0,0,1.23-26.82c-1-15.53-5.64-26.39-14.06-30.07-8.1-4.24-21,.77-32,15.83a90.41,90.41,0,0,0-13.79,29.87,121.11,121.11,0,0,0-3.34,43.06,115.27,115.27,0,0,0,4.5,23,141.39,141.39,0,0,0,10.41,25.48,132.23,132.23,0,0,0,14.81,22.38c1.28,1.63,2.65,3.16,4,4.6s2.66,2.83,3.94,4.13c2.67,2.57,5.25,4.8,7.58,6.73,0-3.07.09-6.35.13-9.75.2-3.46.22-7,.5-10.65.45-7.3,1.31-14.94,2.34-22.44s2.5-14.93,3.88-22S849.36,871.78,850.37,865.73Z"/><path class="cls-3" d="M992.54,971.6s-81.5-17.33-153.1-2.92"/><path class="cls-3" d="M913.34,991.11c5.77,1.16,11.25,2.22,16.44,2.75a127.89,127.89,0,0,0,14.74,1A85.82,85.82,0,0,0,968.74,992c13.67-3.85,22.28-11.38,23.79-20.42,2-8.94-4.13-19.59-17.63-27.41a77,77,0,0,0-25.41-8.76,106.07,106.07,0,0,0-16.31-1.5,123.49,123.49,0,0,0-18.39,1.22c-10.58,1.06-25.64,5.6-39.82,11.89-3.56,1.63-7,3.25-10.43,5s-6.61,3.7-9.65,5.53a100.22,100.22,0,0,0-8.49,5.69c-2.58,1.89-4.92,3.7-7,5.42,2.58.91,5.32,1.85,8.2,2.78s5.86,1.78,9,2.92l19.3,6.36,4.91,1.53,4.91,1.6c3.25,1.06,6.47,1.94,9.63,2.88s6.28,1.79,9.27,2.49S910.56,990.65,913.34,991.11Z"/><path class="cls-3" d="M986.44,1035.13s-47.88-36.12-174.7,20.26"/><path class="cls-3" d="M900.76,1055.4c3.3,0,6.49-.1,9.56-.29l2.28-.16h2.21c1.47,0,2.9-.08,4.32-.16,5.69-.49,10.75-.52,15.59-1.16a161.48,161.48,0,0,0,24-3.52,67.26,67.26,0,0,0,16.81-5.88,30.29,30.29,0,0,0,10.87-9.13c2.9-3.57,3-9.16,0-15.19s-9.34-12.22-18.51-17.13c-2.27-1.16-4.73-2.29-7.36-3.38s-5.34-1.78-8.25-2.58c-1.45-.38-3-.84-4.46-1.09s-3-.53-4.6-.75-3.17-.44-4.81-.63a45.8,45.8,0,0,0-5-.38c-3.32-.09-6.76-.08-10.3,0l-2.67.11-2.63.29c-1.77.21-3.57.44-5.38.7s-3.66.56-5.51.87c-.92.17-1.86.31-2.78.51l-2.74.7q-5.52,1.43-11.2,3.22a73.64,73.64,0,0,0-10,3.79c-3.51,1.54-7.2,3.27-11,5.17s-7.43,4.32-11.2,6.65-7.58,4.67-11.12,7.46-7.12,5.42-10.5,8.14l-5,4.07c-1.61,1.36-3.12,2.83-4.63,4.22-6,5.62-11.14,10.92-15.15,15.47,6.18.35,13.27.51,20.8.48l5.71-.06,5.9.12q6,.09,12,0c2,0,4-.1,6-.08l6,.12c3.95,0,7.84,0,11.62-.1s7.46.08,11,0S897.6,1055.4,900.76,1055.4Z"/><path class="cls-3" d="M751.78,858.35c17.57,30.6,46,188.52,46,188.52"/><path class="cls-3" d="M806.52,948c-2.54-31.89-11.3-56.69-22.32-72.6-5.49-8-11.61-13.69-17.46-16.7a22.56,22.56,0,0,0-4.26-1.69,15.19,15.19,0,0,0-4.06-.64,11.71,11.71,0,0,0-6.65,2,18.2,18.2,0,0,0-5.24,4.7,31.84,31.84,0,0,0-2.14,3.09,36.16,36.16,0,0,0-1.86,3.68c-2.28,5.26-3.74,12.12-4.13,20.74-.74,17.18,2.81,41.12,13.42,69.49,4.09,11.77,11.95,28.06,20.58,44.16s18,32,25.38,42.63C804.17,1021.72,809.84,978.69,806.52,948Z"/><path class="cls-3" d="M691.43,985.34s81.22,71,116.39,158.11"/><path class="cls-3" d="M781.88,1043.69c-1-1.85-2.08-3.67-3.12-5.45s-2.19-3.44-3.3-5.11c-2.21-3.33-4.42-6.55-6.68-9.58a163.75,163.75,0,0,0-13.92-16.06,113.82,113.82,0,0,0-27.15-20.75c-17.05-9-30.71-8.64-36.28-1.36-6.11,6.84-5.12,19.84,2.61,35.89,3.8,8.1,9.43,16.86,16.56,26.29,3.67,4.62,7.51,9.56,12,14.44,4.28,5,9.3,10,14.42,15.26,8.52,8.69,21.61,20.23,34.9,32.25l9.93,9c3.14,3.07,6.3,6.08,9.41,9s5.92,5.8,8.69,8.47,5.36,5.22,7.81,7.47c0-3.25,0-6.81-.13-10.63s-.26-8-.86-12.09-1.15-8.53-1.88-13c-.33-2.27-.84-4.46-1.34-6.72L802,1094.2c-.58-2.3-1.17-4.59-1.75-6.87s-1.38-4.49-2.11-6.74c-1.47-4.46-3-9-4.7-13.27s-3.59-8.42-5.48-12.43S783.93,1047.22,781.88,1043.69Z"/><path class="cls-3" d="M987.9,1089.15s-84.67-19.86-169.11,28.85"/><path class="cls-3" d="M903.45,1116.76c3.2,0,6.27,0,9.24-.15s5.91-.06,8.7-.24l4.14-.27c1.35-.06,2.69-.13,4-.22,2.63-.16,5.17-.51,7.64-.75a125,125,0,0,0,25.59-5.13c14.35-4.64,23.46-11.86,25.13-20.88,1.14-4.42-.25-9.48-4-14.28s-9.87-9.41-18.24-13-18.92-5.9-31.19-6.39c-3.07-.08-6.23,0-9.51.18-1.63.08-3.27.17-5,.31s-3.37.43-5.08.68c-3.43.54-6.93,1.08-10.48,1.91s-7.16,1.91-10.81,3a73.13,73.13,0,0,0-9.77,3.59c-3.43,1.51-7.1,3-10.75,5.06s-7.38,4.23-11.11,6.52a63.59,63.59,0,0,0-5.48,3.71l-5.35,4c-1.73,1.34-3.48,2.68-5.22,4s-3.32,2.9-4.92,4.33c-3.17,2.94-6.18,5.84-9,8.66A173.37,173.37,0,0,0,818.77,1118c6.06-.15,12.87-.54,20-1,3.65,0,7.37-.11,11.11-.22l5.6-.2,5.71.07c3.8,0,7.55,0,11.25-.05,3.76.16,7.44.23,11,.23s7.07.15,10.42.11S900.36,1116.73,903.45,1116.76Z"/><path class="cls-4" d="M1069.55,775S881.16,868.27,827.83,988.43c-45.17,101.76-7.69,133.43,1.22,226.59,1.18,12.4,12.44,79.52-40.85,165.61"/><path class="cls-4" d="M915.25,783.53s-20.69,103-46.27,142"/><path class="cls-4" d="M1032.83,901.16s-111-15-158.29,15.71"/><path class="cls-4" d="M837.64,776.91s-40.33,102.55,7.26,180.58"/><path class="cls-4" d="M989.59,971s-69.22-43.11-151.45-2"/><path class="cls-4" d="M753,861.39s42.14,138.6,53.75,234.9"/><path class="cls-4" d="M986.6,1031.46c-32.9-31.08-168-5.48-180,36.41"/><path class="cls-4" d="M699.54,990.77S812.82,1102.54,829,1212.16"/><path class="cls-4" d="M979.13,1081.12s-112.23-23.88-166.61,46"/><path class="cls-3" d="M460.54,1092.88l-27.94,22a370.59,370.59,0,0,1-64.15-50.13,300.5,300.5,0,0,1,50.41-57c95.78-83.78,282.26-8.2,293.52,158.46-51.44,18.53-125.09,15.41-202-13.24a435.27,435.27,0,0,1-56.82-25.9Z"/><path class="cls-4" d="M368.45,1064.73s196.86-77.63,332.62,87c3.83,4.62,41.61,55,52.63,123.67"/><line class="cls-4" x1="405.25" y1="1020.33" x2="435.98" y2="1049.49"/><line class="cls-4" x1="438.24" y1="994.38" x2="483.23" y2="1046.37"/><line class="cls-4" x1="477.4" y1="978.33" x2="530.48" y2="1050.56"/><line class="cls-4" x1="528.42" y1="974.08" x2="573.34" y2="1061.79"/><line class="cls-4" x1="574.55" y1="984.26" x2="608.39" y2="1075.9"/><line class="cls-4" x1="624.92" y1="1009.76" x2="650.15" y2="1102.69"/><line class="cls-4" x1="667.65" y1="1049.54" x2="685.3" y2="1134.17"/><line class="cls-4" x1="402.59" y1="1093.74" x2="434.55" y2="1048.8"/><line class="cls-4" x1="483.23" y1="1046.37" x2="429.14" y2="1112.71"/><line class="cls-4" x1="530.48" y1="1050.56" x2="470.79" y2="1135.48"/><line class="cls-4" x1="573.34" y1="1061.79" x2="515.14" y2="1154.93"/><line class="cls-4" x1="608.39" y1="1075.9" x2="555.66" y2="1167.02"/><line class="cls-4" x1="650.15" y1="1102.69" x2="604.2" y2="1176"/><line class="cls-4" x1="685.3" y1="1134.17" x2="652.49" y2="1176.94"/><path class="cls-3" d="M827.23,518.65c-19,50.9-57.07,69.78-111.22,68.5C675.1,546,668.62,497,701.74,447.09c33-49.43,94.44-89.24,146.9-102C850.91,397.05,846.05,468.31,827.23,518.65Z"/><path class="cls-4" d="M832.19,368.26C786.46,431.59,736,530,704.57,609.79c-10.47,26.59-106.22,329.58,40,512.5"/><path class="cls-4" d="M797.63,421.32a359.41,359.41,0,0,1-4.11-43.45"/><path class="cls-4" d="M776.29,458.47c-4.77-16.55-10.43-33.11-12.51-49.31"/><path class="cls-4" d="M754.82,498a351.72,351.72,0,0,1-22.56-81.74"/><path class="cls-4" d="M738.41,529.84a348.86,348.86,0,0,1-30.54-74.33"/><path class="cls-4" d="M725.66,561.4a378.19,378.19,0,0,1-24-39.37"/><path class="cls-4" d="M801.3,414.27q20.19-5.86,40.44-11.86"/><path class="cls-4" d="M779.83,454.28c20.64-5.14,38.74-10.58,59.44-15.95"/><path class="cls-4" d="M759.44,491.75c25.54-5.23,48.88-10.93,74.46-16.52"/><path class="cls-4" d="M740.84,526.19Q779.92,520,819,513.14"/><path class="cls-4" d="M727.11,558.12c22.33-2.57,45.3-5.28,67.59-8.12"/><path class="cls-3" d="M699.42,946.84s68.36-147.06,5.68-233.93S518.35,590.26,518.35,590.26s-73.25,173.29,5.94,259.41S679.36,926.27,699.42,946.84Z"/><path class="cls-4" d="M518.35,590.26s257.72,334.51,233.39,716.38"/><g class="cls-5"><path class="cls-4" d="M565.06,592.55c-5.29,13.32-11.88,25.3-19.95,32.85"/><path class="cls-4" d="M590.38,605.2c-7.15,20.32-17,40.6-29.66,51.23"/><path class="cls-4" d="M616.82,620.5c-7.49,24.35-19.25,52-36.29,64.81"/><path class="cls-4" d="M640.65,639.87c-8.06,26.36-22,60.37-43.06,74.75"/><path class="cls-4" d="M664.8,659.26c-8.26,27.4-24.68,69.83-50.46,85.88"/><path class="cls-4" d="M687.8,682.93c-8.63,27.23-27.72,76.24-57.49,93.18"/><path class="cls-4" d="M710.34,708.29c-9.27,26.64-32,82.14-65.6,99.69"/><path class="cls-4" d="M728.86,745.4c-11.65,28.91-35.43,77.82-68.15,93.55"/><path class="cls-4" d="M738.38,798.52c-15,28.51-37.41,62-64.33,74"/><path class="cls-4" d="M735.85,860.64c-14.54,19.21-31.74,36.46-50.25,44.07"/><path class="cls-4" d="M500.63,612.31a228.45,228.45,0,0,1,41.25,11.75"/><path class="cls-4" d="M493.24,640.73c22,.41,47.46,3.72,69.94,13.91"/><path class="cls-4" d="M485.86,675.22c27-4.39,64.62-5.94,96,9.81"/><path class="cls-4" d="M479.6,714.85c26.65-9.82,77.68-23.08,118.76-.68"/><path class="cls-4" d="M472.86,761.17s81.51-52.07,142.25-16.48"/><path class="cls-4" d="M484.23,799.84s83.61-62.91,146.69-23.57"/><path class="cls-4" d="M495.61,838.5S580.55,765.2,646,808.3"/><path class="cls-4" d="M523.69,862.64c28-22.09,86.44-58.14,135.8-24"/><path class="cls-4" d="M546.8,890.37c31.09-23.72,82.46-50.92,127.41-18.49"/><path class="cls-4" d="M577.26,911.05c30.68-21,71.76-36.13,109.55-7.79"/></g><polygon class="cls-3" points="684.84 1470.81 855.77 1470.81 884.24 1294.53 656.35 1294.53 684.84 1470.81"/><polygon class="cls-6" points="767.7 1470.81 835.12 1470.81 867.85 1294.53 783.43 1294.53 767.7 1470.81"/><line class="cls-7" x1="871.69" y1="1333.5" x2="700.75" y2="1333.5"/><path class="cls-8" d="M928,1443.49a41.79,41.79,0,0,1-41.75-41.74V626.9A41.79,41.79,0,0,1,928,585.15H2060.26A41.79,41.79,0,0,1,2102,626.9v774.85a41.79,41.79,0,0,1-41.76,41.74Z"/><path class="cls-9" d="M2098.1,1401.75a37.83,37.83,0,0,1-37.84,37.84H928a37.83,37.83,0,0,1-37.84-37.84V626.9A37.83,37.83,0,0,1,928,589.06H2060.26a37.83,37.83,0,0,1,37.84,37.84Z"/><rect class="cls-10" x="949.42" y="643.36" width="1089.46" height="695.39"/><rect class="cls-11" x="682.68" y="1396.73" width="1622.93" height="47.48"/><path class="cls-12" d="M685.07,1444.21c19.17,20.3,54.47,28.27,78.81,28.27H2224.41c24.35,0,59.65-8,78.82-28.27Z"/><path class="cls-12" d="M1383.92,1396.73v5.1a17,17,0,0,0,16.95,17h186.57a17,17,0,0,0,17-17v-5.1Z"/><path class="cls-13" d="M1987.52,774.74a68.14,68.14,0,1,1-68.14-68.14A68.14,68.14,0,0,1,1987.52,774.74Z"/><path class="cls-14" d="M1919.38,797.43a27.93,27.93,0,0,1-27.89-27.9v-5.07a3.38,3.38,0,0,1,6.76,0v5.07a21.13,21.13,0,1,0,42.26,0v-5.07a3.38,3.38,0,1,1,6.76,0v5.07A27.93,27.93,0,0,1,1919.38,797.43Z"/><path class="cls-14" d="M1919.38,783.9A14.38,14.38,0,0,1,1905,769.53V745.87a14.37,14.37,0,1,1,28.74,0v23.66A14.38,14.38,0,0,1,1919.38,783.9Z"/><path class="cls-14" d="M1919.38,812.64a3.38,3.38,0,0,1-3.38-3.38V794.89a3.38,3.38,0,1,1,6.76,0v14.37A3.38,3.38,0,0,1,1919.38,812.64Z"/><path class="cls-14" d="M1935.44,812.64h-32.12a3.39,3.39,0,0,1,0-6.77h32.12a3.39,3.39,0,0,1,0,6.77Z"/><path class="cls-15" d="M1987.52,944.31a68.14,68.14,0,1,1-68.14-68.14A68.14,68.14,0,0,1,1987.52,944.31Z"/><circle class="cls-16" cx="1919.38" cy="1113.88" r="68.14" transform="matrix(0.17, -0.99, 0.99, 0.17, 494.26, 2814.99)"/><path class="cls-14" d="M1932.59,1143.2a42.81,42.81,0,0,1-42.76-42.76v-10.68a5.36,5.36,0,0,1,5.35-5.35h10.68a2.47,2.47,0,0,1,1.92.63c.73.75.78,2,.76,4v12.1c0,2,0,3.27-.76,4a2.32,2.32,0,0,1-1.8.62l-3,.07.37,2.93a24,24,0,0,0,20.85,20.86l2.94.36.06-2.94a2.41,2.41,0,0,1,.63-1.81c.64-.64,1.7-.76,3.31-.76h13.47c1.62,0,2.68.12,3.33.76a2.43,2.43,0,0,1,.63,1.92v10.69a5.35,5.35,0,0,1-5.35,5.34Z"/><polygon class="cls-14" points="1937.74 936.09 1937.74 948.8 1952.41 961.52 1952.41 923.37 1937.74 936.09"/><path class="cls-14" d="M1933.34,961.52a4.41,4.41,0,0,1-4.41,4.39h-38.14a4.39,4.39,0,0,1-4.39-4.39V923.37a4.39,4.39,0,0,1,4.39-4.4h38.14a4.41,4.41,0,0,1,4.41,4.4Z"/><g class="cls-17"><path class="cls-18" d="M1634.27,873.24s42.65-61.48,47.09-68.4,2.37-12.74,5.46-30.6,4.42-21.14,7.63-35,4-15.57,4-15.57,7.52,2.88,7.65,8.62c0,5.16-2.68,17-2.53,21.4s2.45-9.9,11.58-29.27A310.16,310.16,0,0,1,1741,680c3.43-4.68,3.94-5.34,4.26-5.18,2.51,1,4.67,1.93,4.11,4.52-.34,2.27-3.76,9.65-3.27,9.3,2-1.18,10.47-11.46,11.78-13.47s3-4.65,4.29-6.17c2.77-3.13,6.56.16,5.94,7.23,0,0,2.51,2.67,2.45,4.83,0,1.11,0,1.91-.07,3.07s-.59,2.54-.73,3.74a110.21,110.21,0,0,1-3,13.44c-.53,1.76-7.31,16.2-6.33,16.51.11.09,7-10.66,7.85-10.13,1.79,1.25,3.44,4.36,2.49,6.44-1.79,3.64-4.32,9.15-12.19,24-8.65,16.41-9,20.2-17.4,42.41-6.31,16.62-15.64,20.46-23.12,34.21-24.5,45.09-38.68,85.92-51.45,95.24S1634.27,873.24,1634.27,873.24Z"/><path class="cls-19" d="M1164.17,782.53s-89.47,20.41-101.57-17,26.75-64-6-88-76.68-37.86-12.3-75.69,3.23-93.46,52.41-108.75,65.56,14.69,112.67,4.32,96.25-61.51,138-9.34,52.8,108.79,24.88,120.25,13.84,27.76,27,46,13.92,99.47-116.22,84.38S1218.1,766.93,1164.17,782.53Z"/><path class="cls-20" d="M1253.8,805.51c9.86-17.49,32.19-20.93,58.29-6.83,132,71.73,276.4,237.58,276.4,237.58s2,37-28.12,42.77c-36.2,6.9-137.64-23.9-297.61-157.71C1216.53,882.59,1237.19,835.12,1253.8,805.51Z"/><path class="cls-18" d="M1086.09,944s112.9,101.16,195.47,89.45,112.69-42,112-76.42-24.57-88.6-43.88-103.92c-48.64-38.59-52.6-34.63-75.34-46.5-24.77-12.93-30.29-55-34.1-90.91s21.39-48-10.49-53.28-26.77-24.55-51.17-10.24-43.37,10.36-33.79,35.29c17.46,45.64,45.72,108.21,31.49,147.27C1160.58,878.17,1136.6,898.55,1086.09,944Z"/><path class="cls-15" d="M1441.45,1055.73q-40.67-87.24-80.77-175.13a215.89,215.89,0,0,0-19.19-33.85c29.91,146.65-50.37,121.06-164.35,52-19.94,37.8-88.6,86.87-87.17,93.05,15.57,66.61,36.67,131.95,52.77,198.44,6.73,28.32,27.28,50.92,48.48,65.12a74.57,74.57,0,0,0,2,16.8l5.51,32.94c6.33,26.68-16.39,129.57,0,126.5l237-49c16.36-3.1,22.55-63.14,16.2-89.67l-11.15-136.08a63.2,63.2,0,0,0-2-6.67C1449.72,1122.76,1455.3,1085.05,1441.45,1055.73Z"/><path class="cls-21" d="M1240.21,715.7c-3.81-35.89,21.39-48-10.49-53.28s-26.77-24.55-51.17-10.24c-11.86,7-22.43,9.63-29.08,13.38q-3.43,4.38-7,8.59c-.6,3.27,0,7.49,2.27,13.32,9,23.56,20.9,51.63,28.34,78.65,21.67,9.66,49,11.83,76.69,4.87C1244.58,754.1,1242.16,734.1,1240.21,715.7Z"/><path class="cls-22" d="M1173.44,843.2s-120,50-113.39,101.2c9.75,75.39,15.78,122.44,36.61,159.86,24.18,43.48,44.23,104.3,77.18,159.75,40,67.4,4.47,154,12.34,137.59,1.55-3.26,108.57-45.81,140.22-53.72,12.84-3.21,1.31-275.58-65.93-406.12C1235.28,892.86,1173.44,843.2,1173.44,843.2Z"/><path class="cls-22" d="M1409.15,901.65c-9.34-17.22-58.75-65-84.07-81.19-20.11-12.86-44.84-13.85-51.28-14.57-5.83-.66,80,27.13,125.61,203.14,7.8,30,7.76,106.69,10.73,156.11s17.19,138.51,17.19,138.51,52.26-3.37,56.51,3.45-30-59.23-32.21-129.59C1446.32,1008.49,1450.56,978.08,1409.15,901.65Z"/><path class="cls-20" d="M1106.31,907.81c-20.09-1.25-48.2-2.76-46.26,31.32,8.69,149.28,48.32,440.2,48.32,440.2s34.12,19.06,51.4-8.75c21.94-35.13,58.32-142,37.8-382C1191.56,919.22,1140.38,909.89,1106.31,907.81Z"/><path class="cls-18" d="M1052,1568.87s-27,80.7-31.68,87.48-10.82,7.14-26.08,16.93-17.75,12.29-29.28,20.62-12.8,9.7-12.8,9.7,5.57,5.8,10.91,3.7c4.74-2,14.65-9.1,18.73-10.65s-8.17,6.1-22.47,22a309.42,309.42,0,0,0-30.84,41.16c-3,5-3.38,5.71-3.12,5.93,1.86,2,3.6,3.56,5.77,2,2-1.2,7.43-7.22,7.29-6.63-.29,2.35-6.49,14.1-7.83,16.09s-3.1,4.61-4,6.35c-1.82,3.77,2.7,6,9,2.67,0,0,3.44,1.27,5.4.38,1-.41,1.75-.78,2.81-1.26s2.11-1.53,3.15-2.12a110.5,110.5,0,0,0,11.24-8c1.41-1.17,12.08-13,12.75-12.25.12.07-7.09,10.6-6.28,11.16,1.84,1.18,5.35,1.49,6.9-.2,2.66-3.06,6.74-7.53,17.39-20.56,11.76-14.35,13.27-18.31,32.32-32.52,16.72-12.24,19.13-19.32,22.53-34.6,11.6-52.62,63.88-129.63,67.51-145S1052,1568.87,1052,1568.87Z"/><path class="cls-20" d="M1110.88,1589.63c-34.32,5.56-49.1-9.44-78.6-22.26,13.49-75.84,38.79-190.06,59.31-268,7.57-29,71.41-70.87,89.37-62.1,30.54,14.81-4.19,148.78-20.23,207.59C1146.11,1498.51,1136.29,1556.26,1110.88,1589.63Z"/><path class="cls-20" d="M1660,815.54c-43.23,55.12-114.85,143.16-156.66,205.12-15.53,23,18,52.74,33.39,57.31,38.74,11.5,65.36-39.85,96.63-87.06,28.52-43,61.65-84.59,72.8-124.67C1695.8,835.14,1680.21,832,1660,815.54Z"/><path class="cls-18" d="M1151.18,534.07c-2.39.24-4.89.6-7.34,1,5.54,28.68-3.63,68.62-27.14,106.24a206.94,206.94,0,0,1-18.51,25.14l9.68,25.21c14.25,37.23,57.43,55.44,96.39,40.47s59-57.28,44.75-94.54l-21.75-56.76C1202.94,575.35,1175.42,559.08,1151.18,534.07Z"/></g></svg>