<?xml version="1.0" ?><svg data-name="Layer 1" id="Layer_1" viewBox="0 0 500 500" xmlns="http://www.w3.org/2000/svg"><defs><style>.cls-1{fill:#2a73ff;}.cls-2,.cls-4{fill:#fff;}.cls-3{fill:none;}.cls-3,.cls-4{stroke:#000;stroke-miterlimit:10;stroke-width:15px;}</style></defs><title/><circle class="cls-1" cx="257" cy="250" r="239"/><path class="cls-2" d="M354,135S242,88,185,149c-6.49,6.94-28.77,81.93,2,78,47-6,28.33-45.86,56-49,40,4,147,116,147,116l34-46-45-72Z"/><path class="cls-3" d="M353.5,134.5S170.57,70.28,168,201.38c0,0-.47,28.12,19.1,26,24.18-2.56,41.68-14.76,41.68-36.47s36.47-6.08,36.47-6.08L389.37,293.42,422.5,239.5"/><path class="cls-3" d="M100.24,250S243.5,405.42,268.68,401.08s20-23.44,20-23.44L238.29,336"/><path class="cls-3" d="M334.14,245.15s67.38,47.4,63.91,64.77S372,331.62,359,322.07s-80.75-59-80.75-59"/><path class="cls-3" d="M259.13,303s76.4,60.78,91.16,55.57c16.7-5.89,18.81-25.64,5.8-35.22S278.23,263,278.23,263"/><path class="cls-3" d="M259.13,303s73.52,49.37,73.35,65c-.19,17.71-18.2,26.08-31.46,16.86S238.29,336,238.29,336"/><rect class="cls-3" height="171.91" transform="translate(-32.11 243.19) rotate(-31.81)" width="51.23" x="385.03" y="91.99"/><rect class="cls-4" height="171.91" transform="translate(108.49 386.8) rotate(-148.19)" width="51.23" x="83.75" y="91.99"/><rect class="cls-4" height="73.48" rx="24.66" ry="24.66" transform="translate(221.88 -8.32) rotate(38.9)" width="49.33" x="98.05" y="273.25"/><rect class="cls-4" height="65.81" rx="21.22" ry="21.22" transform="translate(248.03 -23.88) rotate(38.9)" width="42.43" x="136.61" y="306.33"/><rect class="cls-4" height="65.81" rx="21.22" ry="21.22" transform="translate(275.17 -38.22) rotate(38.9)" width="42.43" x="170.48" y="337.58"/><rect class="cls-4" height="55.65" rx="17.94" ry="17.94" transform="translate(295.16 -55.71) rotate(38.9)" width="35.88" x="208.52" y="362.23"/><line class="cls-3" x1="173" x2="191.69" y1="133" y2="140.73"/></svg>